<svg xmlns="http://www.w3.org/2000/svg" xmlns:xlink="http://www.w3.org/1999/xlink" width="0" height="0" style="position:absolute">
    <symbol id="icon-twitter" viewBox="0 0 64 64">
            <path d="M22.625 52.526c4.77 0 8.988-.896 12.656-2.689 3.668-1.793 6.752-4.103 9.252-6.932a29.602 29.602 0 005.674-9.499c1.283-3.503 1.925-6.965 1.925-10.386l-.007-.34-.018-.326a8.69 8.69 0 01-.025-.666 20.169 20.169 0 005.18-5.378c-.92.427-1.882.78-2.885 1.06-1.004.28-2.032.469-3.084.567a9.898 9.898 0 002.812-2.417 10.365 10.365 0 001.777-3.306 22.639 22.639 0 01-3.183 1.53 20.022 20.022 0 01-3.43.986c-.92-.987-2.039-1.776-3.355-2.368a10.103 10.103 0 00-4.194-.888c-1.414 0-2.755.271-4.021.814a10.438 10.438 0 00-3.306 2.22 10.515 10.515 0 00-2.22 3.281c-.543 1.25-.814 2.6-.814 4.047 0 .394.024.789.074 1.184.049.394.106.79.172 1.184a28.239 28.239 0 01-6.242-.987 29.59 29.59 0 01-5.748-2.245 29.727 29.727 0 01-5.082-3.33 29.421 29.421 0 01-4.293-4.293 10.944 10.944 0 00-1.011 2.467c-.247.888-.37 1.809-.37 2.763 0 1.776.419 3.421 1.258 4.934a10.772 10.772 0 003.33 3.7 10.37 10.37 0 01-2.442-.394 10.095 10.095 0 01-2.245-.937v.148c0 2.5.798 4.704 2.393 6.611 1.595 1.908 3.577 3.093 5.946 3.553a7.086 7.086 0 01-1.333.271c-.46.05-.937.074-1.43.074-.33 0-.65-.016-.963-.049l-.962-.099c.658 2.04 1.867 3.734 3.627 5.083 1.76 1.348 3.774 2.056 6.044 2.121a21.503 21.503 0 01-5.945 3.257c-2.188.79-4.499 1.184-6.933 1.184-.428 0-.847-.016-1.258-.05a366.41 366.41 0 01-1.21-.098 31.593 31.593 0 003.603 1.95 28.82 28.82 0 003.873 1.455c1.332.395 2.706.699 4.12.913a28.68 28.68 0 004.293.32z" />
    </symbol>
    <symbol id="icon-xing" viewBox="0 0 64 64">
            <path d="M46.507 57.263c.23 0 .427-.041.592-.123.164-.082.296-.19.394-.32.1-.165.148-.346.148-.544 0-.197-.049-.394-.148-.592l-10.263-18.8h-.05l.05-.048 16.135-28.52c.099-.198.148-.395.148-.592 0-.198-.05-.379-.148-.543a1.095 1.095 0 00-.395-.32 1.311 1.311 0 00-.592-.124h-7.352c-.526 0-.937.14-1.233.42-.296.279-.543.6-.74.961l-.019.033-.055.1-2.369 4.234a1814.535 1814.535 0 01-5.452 9.671A1953.4 1953.4 0 0029.607 32a1962.114 1962.114 0 01-2.739 4.885l.02.037.227.414.16.295 1.222 2.24c1.085 1.99 2.27 4.168 3.552 6.537 1.283 2.368 2.467 4.54 3.553 6.513l1.628 2.96c.165.33.403.642.716.938.312.296.748.444 1.307.444h7.254zM18.875 42.115c.526 0 .946-.148 1.258-.444.313-.296.551-.608.716-.937 0 0 .394-.7 1.184-2.097.79-1.399 1.67-2.953 2.64-4.663.97-1.71 1.866-3.298 2.689-4.762.822-1.464 1.283-2.261 1.381-2.393-.032-.033-.304-.502-.814-1.406-.408-.724-.852-1.505-1.334-2.345l-.368-.64a764.284 764.284 0 00-2.516-4.342 4.877 4.877 0 00-.74-.938c-.297-.296-.724-.444-1.284-.444h-7.253c-.23 0-.436.041-.617.123-.18.083-.32.19-.419.321a1.449 1.449 0 00-.099.543c0 .197.05.395.148.592l4.935 8.536v.05l-7.747 13.667a1.314 1.314 0 00-.148.592.8.8 0 00.148.494.95.95 0 00.395.37c.164.082.345.123.542.123h7.303z" />    
    </symbol>
    <symbol id="icon-linkedin" viewBox="0 0 64 64">
            <path d="M14.632 19.947c1.315 0 2.434-.46 3.355-1.381.92-.921 1.381-2.04 1.381-3.355 0-1.316-.46-2.435-1.381-3.356-.921-.92-2.04-1.381-3.355-1.381-1.316 0-2.435.46-3.356 1.381-.92.921-1.381 2.04-1.381 3.356 0 1.315.46 2.434 1.381 3.355.921.92 2.04 1.381 3.356 1.381zm20.18 31.58V37.808c0-1.809.313-3.446.938-4.91.625-1.463 2.122-2.195 4.49-2.195 2.336 0 3.709.822 4.12 2.467.411 1.645.617 3.273.617 4.885v13.47h9.128V36.33c0-1.875-.14-3.618-.42-5.23-.279-1.612-.813-3.01-1.603-4.194-.79-1.185-1.891-2.114-3.306-2.788-1.414-.675-3.29-1.012-5.625-1.012-2.204 0-4.038.477-5.501 1.431-1.464.954-2.492 1.974-3.084 3.06h-.148v-4.49h-8.734v28.42h9.128zm-15.444 0V23.104H9.895v28.421h9.473z" />
    </symbol>
    <symbol id="icon-youtube" viewBox="0 0 64 64">
            <path d="M38.192 49.69c1.76-.05 3.676-.108 5.749-.174 2.072-.065 3.996-.164 5.773-.296.493-.032 1.217-.14 2.17-.32.955-.181 1.909-.782 2.863-1.801.756-.757 1.283-1.785 1.579-3.084l.444-1.95.246-2.54c.165-1.694.247-3.561.247-5.6v-3.85c0-2.039-.082-3.914-.247-5.624l-.246-2.566-.444-1.924c-.296-1.283-.823-2.303-1.58-3.06-.953-1.02-1.915-1.62-2.886-1.8-.97-.182-1.702-.305-2.196-.37-1.743-.132-3.65-.231-5.723-.297a442.99 442.99 0 00-5.749-.148c-1.76-.033-3.231-.05-4.416-.05h-3.552c-1.185 0-2.657.017-4.416.05-1.76.033-3.676.082-5.749.148-2.072.066-3.98.165-5.723.296-.494.066-1.226.19-2.196.37-.97.181-1.933.782-2.887 1.801-.756.757-1.283 1.777-1.579 3.06l-.444 1.924-.246 2.566a59.05 59.05 0 00-.247 5.625v3.848c0 2.04.082 3.907.247 5.6l.246 2.542.444 1.949c.296 1.3.823 2.327 1.58 3.084.953 1.02 1.981 1.612 3.083 1.776 1.102.164 1.933.296 2.492.395 1.02.098 2.483.18 4.391.246s3.808.116 5.7.148c1.89.033 3.544.058 4.958.074l2.025.024 1.873.001c1.185 0 2.657-.025 4.416-.074zM26.77 38.562V24.352l13.668 7.105-13.668 7.105z" />
    </symbol>
    <symbol id="icon-facebook" viewBox="0 0 64 64">
            <path d="M26 25h-6v8h6v24h10V33h7.284L44 25h-8v-3.334c0-1.91.384-2.666 2.23-2.666H44V9h-7.616C29.192 9 26 12.165 26 18.23V25z" />
    </symbol>
    <symbol id="icon-instagram" viewBox="0 0 64 64">
            <path d="M33.902 7.001c5.082.006 6.01.04 8.404.149 2.662.12 4.48.544 6.07 1.162a12.264 12.264 0 014.428 2.884 12.256 12.256 0 012.883 4.428c.619 1.59 1.04 3.408 1.163 6.07.025.543.046 1.012.064 1.47l.01.275c.054 1.51.072 3.058.075 7.013v3.096c-.003 3.715-.02 5.306-.066 6.737l-.01.276-.005.137-.01.275c-.017.416-.036.844-.058 1.334-.12 2.661-.544 4.48-1.163 6.07-.638 1.642-1.494 3.038-2.883 4.427a12.256 12.256 0 01-4.428 2.883c-1.59.619-3.408 1.04-6.07 1.163-2.448.112-3.365.145-8.758.15h-3.096c-3.715-.004-5.306-.02-6.737-.067l-.276-.01-.274-.01c-.46-.017-.928-.038-1.472-.063-2.661-.12-4.48-.544-6.07-1.163-1.642-.638-3.038-1.494-4.427-2.883a12.254 12.254 0 01-2.883-4.428c-.619-1.59-1.04-3.408-1.163-6.07-.11-2.394-.143-3.322-.15-8.404l.001-3.804c.004-3.58.023-5.099.071-6.52l.01-.275.01-.276c.017-.415.036-.843.058-1.333.12-2.662.544-4.48 1.162-6.07a12.264 12.264 0 012.884-4.428 12.254 12.254 0 014.428-2.883c1.59-.619 3.408-1.04 6.07-1.163 2.394-.11 3.323-.143 8.405-.15zm-1.098 4.503h-1.988l-.72.001c-3.573.004-5.028.022-6.447.072l-.274.01c-.46.017-.929.038-1.478.063-2.437.111-3.76.518-4.641.861-1.167.453-2 .995-2.875 1.87-.874.875-1.417 1.708-1.87 2.875-.343.88-.75 2.204-.861 4.641-.025.55-.046 1.019-.063 1.478l-.01.274c-.05 1.419-.068 2.874-.072 6.448v3.806c.004 3.689.023 5.12.077 6.585l.01.276c.016.415.036.845.058 1.339.111 2.437.518 3.76.861 4.641a7.746 7.746 0 001.87 2.875 7.744 7.744 0 002.875 1.87c.88.343 2.204.75 4.641.861.55.025 1.018.046 1.477.063l.275.01.276.01c1.293.04 2.726.057 5.832.061l.692.001H34.243c2.885-.005 4.326-.019 5.553-.054l.28-.009.138-.004.274-.01.276-.01c.415-.016.845-.036 1.339-.058 2.437-.111 3.76-.518 4.641-.861 1.167-.453 2-.995 2.875-1.87a7.744 7.744 0 001.87-2.875c.343-.88.75-2.204.861-4.641.022-.494.042-.924.058-1.34l.01-.275.005-.137.01-.276c.04-1.293.057-2.726.061-5.833l.001-.691v-2.736-1.057c-.005-3.107-.021-4.54-.063-5.833l-.009-.276-.01-.274a201.17 201.17 0 00-.063-1.478c-.111-2.437-.518-3.76-.861-4.641-.453-1.167-.995-2-1.87-2.875-.875-.874-1.708-1.417-2.875-1.87-.88-.343-2.204-.75-4.641-.861-.494-.022-.924-.042-1.34-.058l-.275-.01c-1.464-.054-2.896-.073-6.585-.077H32.805zm-.71 7.883c7.233 0 13.096 5.958 13.096 13.307C45.19 40.042 39.327 46 32.095 46S19 40.042 19 32.694c0-7.35 5.863-13.307 13.095-13.307zm0 4.669c-3.036 0-5.842 1.646-7.36 4.319a8.759 8.759 0 000 8.638c1.518 2.672 4.324 4.319 7.36 4.319 4.696 0 8.502-3.868 8.502-8.638 0-4.771-3.806-8.638-8.501-8.638zM45.905 16C47.615 16 49 17.408 49 19.145c0 1.738-1.386 3.146-3.095 3.146-1.71 0-3.096-1.408-3.096-3.146 0-1.737 1.386-3.145 3.096-3.145z" />
    </symbol>

    <symbol id="icon-arrow-right-up" viewBox="0 0 64 64">
        <path d="m54.111 60.582-.057-42.37-42.37-.057-.088 4.123 35.467.048L8.774 60.614l2.88 2.88 38.289-38.288.048 35.467z" />
    </symbol>
    <symbol id="icon-arrow-left" viewBox="0 0 64 64">
        <path d="M31.023 59L4 32 31.023 5l2.69 2.566-22.621 22.602H60v3.665H11.092l22.62 22.602z" />
    </symbol>
    <symbol id="icon-arrow-right" viewBox="0 0 64 64">
        <path d="M32.977 5L60 32 32.977 59l-2.69-2.566 22.621-22.602H4v-3.665h48.908L30.288 7.565z" />
    </symbol>
    <symbol id="icon-arrow-up" viewBox="0 0 64 64">
        <path d="M5 31.023L32 4l27 27.023-2.566 2.69-22.602-22.621V60h-3.665V11.092L7.565 33.712z" />
    </symbol>
    <symbol id="icon-arrow-down" viewBox="0 0 64 64">
         <path d="M59 32.977L32 60 5 32.977l2.566-2.69 22.602 22.621V4h3.665v48.908l22.602-22.62z" />
    </symbol>
 
    <symbol id="icon-rounded-left" viewBox="0 0 64 64">
        <path d="M31.943 61.998c4.061 0 7.947-.781 11.658-2.343 3.515-1.445 6.68-3.594 9.491-6.446 2.694-2.579 4.843-5.782 6.445-9.61C61.06 39.969 61.88 36.1 61.998 32c-.079-4.18-.88-8.087-2.401-11.719-1.562-3.672-3.71-6.836-6.445-9.492-2.85-2.813-6.014-4.961-9.491-6.446a30.165 30.165 0 00-11.716-2.344c-4.023 0-7.89.781-11.6 2.344a29.709 29.709 0 00-9.608 6.446c-2.616 2.617-4.765 5.781-6.444 9.492-1.601 3.789-2.363 7.695-2.285 11.718-.08 3.906.663 7.773 2.227 11.602 1.757 3.828 3.905 7.031 6.444 9.609a29.709 29.709 0 009.608 6.446 30.022 30.022 0 0011.658 2.343h-.002zM32 58.483c-3.75 0-7.205-.703-10.368-2.11-3.086-1.367-5.86-3.281-8.32-5.742-2.382-2.226-4.296-5-5.742-8.321-1.288-3.164-1.991-6.6-2.109-10.312.08-3.71.763-7.148 2.051-10.312 1.445-3.242 3.359-6.054 5.742-8.437 2.538-2.382 5.311-4.257 8.32-5.624 3.163-1.407 6.639-2.11 10.428-2.11 3.632 0 7.03.703 10.194 2.11 3.28 1.406 6.092 3.28 8.435 5.624a29.52 29.52 0 015.624 8.437c1.524 3.164 2.246 6.601 2.167 10.312.079 3.711-.624 7.148-2.109 10.312-1.444 3.242-3.319 6.016-5.623 8.32-2.305 2.383-5.117 4.297-8.436 5.743-3.163 1.407-6.58 2.11-10.252 2.11H32zm5.74-11.133l2.578-2.462-12.946-12.89 12.946-12.89-2.52-2.461-15.35 15.351L37.742 47.35z" />
    </symbol>
    <symbol id="icon-rounded-right" viewBox="0 0 64 64">
        <path d="M32.057 1.998c-4.061 0-7.947.781-11.658 2.344-3.515 1.445-6.68 3.593-9.491 6.446-2.694 2.578-4.843 5.781-6.445 9.608-1.523 3.633-2.344 7.5-2.461 11.602.079 4.18.88 8.086 2.401 11.718 1.562 3.672 3.71 6.837 6.445 9.493 2.85 2.812 6.014 4.96 9.491 6.446a30.165 30.165 0 0011.716 2.343c4.023 0 7.89-.781 11.6-2.343a29.709 29.709 0 009.608-6.446c2.616-2.618 4.765-5.782 6.444-9.493 1.601-3.788 2.363-7.694 2.285-11.718.08-3.906-.663-7.773-2.227-11.602-1.757-3.828-3.905-7.031-6.444-9.608a29.709 29.709 0 00-9.608-6.446 30.022 30.022 0 00-11.658-2.344h.002zM32 5.514c3.75 0 7.205.703 10.368 2.109 3.086 1.367 5.86 3.281 8.32 5.743 2.382 2.226 4.296 5 5.742 8.32 1.288 3.164 1.991 6.601 2.109 10.312-.08 3.711-.763 7.148-2.051 10.312-1.445 3.242-3.359 6.055-5.742 8.437-2.538 2.382-5.311 4.257-8.32 5.625-3.163 1.406-6.639 2.109-10.428 2.109-3.632 0-7.03-.703-10.194-2.11-3.28-1.406-6.092-3.28-8.435-5.624a29.52 29.52 0 01-5.624-8.437c-1.524-3.164-2.246-6.6-2.167-10.312-.079-3.71.624-7.148 2.109-10.312 1.444-3.242 3.319-6.016 5.623-8.32 2.305-2.383 5.117-4.297 8.436-5.743 3.163-1.406 6.58-2.11 10.252-2.11H32zm-5.74 11.133l-2.578 2.461 12.946 12.89-12.946 12.89 2.52 2.462 15.35-15.352-15.292-15.351z" />
    </symbol>
    <symbol id="icon-rounded-up" viewBox="0 0 64 64">
        <path d="M2 31.941c0 4.062.781 7.948 2.344 11.658 1.445 3.516 3.593 6.68 6.445 9.491 2.579 2.694 5.782 4.843 9.61 6.445 3.631 1.523 7.499 2.344 11.601 2.461 4.18-.078 8.086-.879 11.718-2.401 3.672-1.562 6.836-3.71 9.493-6.445 2.812-2.85 4.96-6.014 6.445-9.491A30.165 30.165 0 0062 31.943c0-4.023-.781-7.89-2.344-11.6a29.709 29.709 0 00-6.445-9.607c-2.618-2.617-5.782-4.766-9.493-6.445C39.93 2.69 36.023 1.928 32 2.006c-3.906-.08-7.773.663-11.602 2.227-3.828 1.757-7.031 3.905-9.609 6.445a29.709 29.709 0 00-6.445 9.607A30.022 30.022 0 002 31.943v-.002zm3.515.058c0-3.75.703-7.205 2.11-10.368 1.367-3.086 3.281-5.859 5.742-8.32 2.227-2.382 5-4.296 8.321-5.742C24.852 6.281 28.29 5.578 32 5.461c3.711.078 7.148.762 10.312 2.05 3.242 1.445 6.054 3.359 8.437 5.742 2.382 2.538 4.257 5.312 5.624 8.32 1.407 3.163 2.11 6.639 2.11 10.428 0 3.632-.703 7.03-2.11 10.194-1.406 3.28-3.28 6.092-5.624 8.436a29.52 29.52 0 01-8.437 5.623C39.148 57.778 35.71 58.5 32 58.421c-3.711.08-7.148-.624-10.312-2.109-3.242-1.444-6.016-3.319-8.32-5.623-2.383-2.305-4.297-5.117-5.743-8.436-1.407-3.163-2.11-6.58-2.11-10.252v-.002zm11.133 5.74l2.462 2.578L32 27.37l12.89 12.946 2.462-2.52L32 22.448 16.648 37.74z" />
    </symbol>
    <symbol id="icon-rounded-down" viewBox="0 0 64 64">
        <path d="M2 32.055c0-4.061.781-7.947 2.344-11.658 1.445-3.515 3.593-6.679 6.445-9.49 2.579-2.695 5.782-4.844 9.61-6.446C24.03 2.938 27.897 2.117 32 2c4.18.079 8.086.88 11.718 2.401 3.672 1.563 6.836 3.71 9.493 6.445 2.812 2.85 4.96 6.014 6.445 9.491A30.165 30.165 0 0162 32.053c0 4.023-.781 7.89-2.344 11.6a29.709 29.709 0 01-6.445 9.608c-2.618 2.617-5.782 4.765-9.493 6.444-3.788 1.601-7.695 2.363-11.718 2.286-3.906.078-7.773-.664-11.602-2.227-3.828-1.758-7.031-3.906-9.609-6.445a29.709 29.709 0 01-6.445-9.608A30.022 30.022 0 012 32.053v.002zm3.515-.058c0 3.75.703 7.205 2.11 10.369 1.367 3.085 3.281 5.858 5.742 8.319 2.227 2.382 5 4.296 8.321 5.742 3.164 1.288 6.601 1.991 10.312 2.109 3.711-.079 7.148-.763 10.312-2.051 3.242-1.445 6.054-3.359 8.437-5.742 2.382-2.538 4.257-5.311 5.624-8.32 1.407-3.162 2.11-6.639 2.11-10.428 0-3.631-.703-7.03-2.11-10.194-1.406-3.28-3.28-6.092-5.624-8.435a29.52 29.52 0 00-8.437-5.624C39.148 6.218 35.71 5.496 32 5.575c-3.711-.079-7.148.624-10.312 2.109-3.242 1.444-6.016 3.319-8.32 5.624-2.383 2.304-4.297 5.116-5.743 8.435-1.407 3.163-2.11 6.58-2.11 10.252v.002zm11.133-5.74l2.462-2.577L32 36.626 44.89 23.68l2.462 2.52L32 41.547l-15.352-15.29z" />
    </symbol>
 
    <symbol id="icon-indication-left" viewBox="0 0 64 64">
        <path d="M12 31.264L45.069 63 48 60.054l-30-28.79L48 3.813 45.069 1z" />
    </symbol>
    <symbol id="icon-indication-right" viewBox="0 0 64 64">
        <path d="M52 31.264L18.931 63 16 60.054l30-28.79L16 3.813 18.931 1z" />
    </symbol>
    <symbol id="icon-indication-down" viewBox="0 0 64 64">
        <path d="M31.264 50L63 16.931 60.054 14l-28.79 30L3.813 14 1 16.931z" />
    </symbol>
    <symbol id="icon-indication-up" viewBox="0 0 64 64">
        <path d="M32.736 12L1 45.069 3.946 48l28.79-30 27.451 30L63 45.069z" />
    </symbol>
    <symbol id="icon-download" viewBox="0 0 64 64">
        <path d="M1 63.002h62v-3.633H1v3.633zm13.32-29.669l2.544-2.664 13.32 13.32V1h3.633v42.99l13.32-13.321 2.545 2.664-17.68 17.68-17.682-17.68z" />
    </symbol>
    <symbol id="icon-search" viewBox="0 0 64 64">
        <path d="M2.002 25.52c0-1.72.16-3.28.48-4.68.2-1.28.64-2.72 1.32-4.32.561-1.32 1.281-2.68 2.16-4.08.84-1.32 1.8-2.52 2.88-3.6 1.08-1.08 2.28-2.04 3.6-2.88 1.4-.88 2.76-1.6 4.08-2.16.96-.44 2.4-.88 4.32-1.32 1.36-.32 2.92-.48 4.68-.48 3.2 0 6.24.6 9.12 1.8 2.88 1.32 5.4 3 7.56 5.04 2 2.12 3.68 4.6 5.04 7.44 1.2 2.88 1.8 5.96 1.8 9.24 0 1.48-.12 2.88-.36 4.201-.4 1.64-.8 3-1.2 4.08a16.81 16.81 0 01-1.801 3.6c-.48.8-1.28 1.92-2.4 3.36L62 59.478 59.48 62 40.76 43.281c-1.44 1.12-2.52 1.92-3.24 2.4-1.24.76-2.48 1.36-3.721 1.8-1.32.48-2.64.841-3.96 1.082-1.28.32-2.72.48-4.32.48-3.4 0-6.44-.64-9.12-1.92-2.92-1.2-5.4-2.88-7.44-5.04-2.119-2-3.799-4.48-5.04-7.44C2.64 31.844 2 28.804 2 25.525l.002-.004zm3.6 0c0 2.8.52 5.36 1.56 7.68 1 2.36 2.44 4.48 4.32 6.36 1.72 1.72 3.84 3.12 6.36 4.201 2.481 1.12 5.041 1.68 7.68 1.68 2.64 0 5.2-.56 7.68-1.68 2.48-1.12 4.6-2.56 6.36-4.32 1.68-1.68 3.081-3.76 4.201-6.24 1.04-2.32 1.56-4.88 1.56-7.679 0-2.76-.52-5.36-1.56-7.8-1.16-2.6-2.56-4.72-4.2-6.36-1.6-1.6-3.72-3-6.361-4.201-2.32-1.04-4.88-1.561-7.68-1.561-1.32 0-2.64.12-3.96.36-1.48.401-2.72.801-3.721 1.2-1.08.44-2.2 1.041-3.36 1.801-1.28.84-2.28 1.68-3 2.521-1.041 1.04-1.881 2.041-2.521 3.001-.6.92-1.201 2.04-1.801 3.36-.52 1.08-.92 2.32-1.2 3.72-.24 1.32-.361 2.64-.361 3.961l.004-.004z" />
    </symbol>
    <symbol id="icon-plus" viewBox="0 0 64 64">
        <path d="M2 33.991h28.009V62h3.982V33.991H62V30.01H33.991V2H30.01v28.009H2z" />
    </symbol>
    <symbol id="icon-minus" viewBox="0 0 64 64">
        <path d="M2 33.991h60V30.01H2z" />
    </symbol>
    <symbol id="icon-back-to-top" viewBox="0 0 64 64">
        <path d="M63 1H1v3.633h62V1zM49.68 30.669l-2.544 2.664-13.32-13.32v42.989h-3.633v-42.99l-13.32 13.321-2.545-2.664 17.68-17.68L49.68 30.67z" />
    </symbol>
    <symbol id="icon-cart" viewBox="0 0 64 64">
        <path d="M2 26.403h10.518l6.872-12.848h5.498V12h15.299v1.555h5.379l6.991 12.848H62L49.989 53.116H13.535L2 26.403zm3.586 2.57l2.33 5.319h2.57v-5.319h-4.9zm3.405 7.709l1.494 4.064v-4.064H8.99zm3.945 9.443l1.913 4.423h5.14v-5.38h-6.991v.957h-.062zm.06-3.406h6.991v-6.035h-6.991v6.035zm0-8.427h6.991v-5.319h-6.991v5.319zm2.45-7.889h34.181L44.01 16.004h-3.824v.897H24.886v-.897h-4.004l-5.437 10.4zm6.872 24.143h8.426v-5.38h-8.426v5.38zm0-7.827h8.426v-6.035h-8.426v6.035zm0-8.427h8.426v-5.319h-8.426v5.319zm10.996 16.254h7.888v-5.38h-7.888v5.38zm0-7.827h7.888v-6.035h-7.888v6.035zm0-8.427h7.888v-5.319h-7.888v5.319zm10.278 16.254h5.02l1.853-4.423v-.956h-6.873v5.379zm0-7.827h6.873v-6.035h-6.873v6.035zm0-8.427h6.873v-5.319h-6.873v5.319zm9.443 6.454l1.494-4.064h-1.494v4.064zm0-6.454h2.57l2.331-5.319h-4.9v5.319z" />
    </symbol>
    <symbol id="icon-checkbox-checked" viewBox="0 0 64 64">
        <path d="M34 4v4H8v48h48V20h4v40H4V4h30zm18.57 0l3.099 1.982-27.134 41.754L15.77 34.973l2.603-2.725 9.54 9.664L52.57 4z" />
    </symbol>
    <symbol id="icon-checkbox" viewBox="0 0 64 64">
        <path d="M60 4H4v56h56V4zm-4 4v48H8V8h48z" />
    </symbol>
    <symbol id="icon-close" viewBox="0 0 64 64">
        <path d="M4 57.338L6.662 60 32 34.662 57.338 60 60 57.338 34.662 32 60 6.662 57.338 4 32 29.338 6.662 4 4 6.662 29.338 32z" />
    </symbol>
    <symbol id="icon-contact" viewBox="0 0 64 64">
        <path d="M2.007 60.127a16.256 16.256 0 011.875-6.9c1.094-2.065 2.735-4.014 4.922-5.846 1.758-1.559 4.18-3.04 7.266-4.443 2.695-1.247 5.781-2.105 9.259-2.572v-4.562c-.43-.311-.86-.818-1.29-1.52-.313-.391-.703-.976-1.172-1.755-.274-.468-.548-1.092-.821-1.871-.235-.39-.51-.976-.822-1.755-.235-.079-.508-.274-.82-.586-.236-.117-.47-.35-.704-.701a24.066 24.066 0 01-.587-.936 2.319 2.319 0 01-.587-1.053c-.156-.43-.312-1.053-.468-1.87-.157-.78-.196-1.326-.119-1.638 0-.468.118-.935.353-1.403.195-.43.507-.78.937-1.053a1.293 1.293 0 01-.118-.586v-2.924c0-1.403.04-2.456.118-3.158 0-.858.196-1.871.587-3.04a4.796 4.796 0 011.759-2.339c.781-.546 1.914-.936 3.4-1.169 0 .079.039.079.117 0 0-.079.04-.118.119-.118v-.234c0-.078.039-.078.118 0a7.014 7.014 0 01.821-1.52 6.17 6.17 0 00.293-.352c.194-.195.37-.35.526-.468.118-.117.274-.235.47-.352a6.033 6.033 0 011.874-.935c.118 0 .528-.078 1.23-.234.664-.117 1.23-.195 1.699-.234l.937.118c1.642-.117 3.165 0 4.572.352 1.485.35 2.735.818 3.75 1.403a12.618 12.618 0 012.812 2.104c.781 1.053 1.328 2.028 1.64 2.925.04.078.079.234.119.467.04.234.08.39.118.468 0 .39-.04.702-.118.935a1.89 1.89 0 00-.118.41 1.89 1.89 0 01-.118.41 1.89 1.89 0 00-.118.41 5.069 5.069 0 01-.119.41l-.352.819a3.902 3.902 0 00-.118.525c-.04.234-.08.409-.118.526-.08.235-.119.664-.119 1.287-.117.547-.117 1.054 0 1.521 0 .39.04.625.119.702v.585a2.192 2.192 0 00-.119.702v.702c.313.117.547.429.704.935l.352 1.287c.118.468.118 1.013 0 1.637l-.352 1.755a4.426 4.426 0 01-.235.82c-.156.273-.234.428-.234.467l-.703.936c-.313.467-.547.74-.703.819l-.938.702c-.156.311-.39.857-.703 1.637-.313.779-.586 1.364-.821 1.754l-1.056 1.637a1.852 1.852 0 01-.352.468 2.67 2.67 0 01-.47.468l-.352.352v5.028c3.4.468 6.446 1.326 9.141 2.573 3.047 1.442 5.43 2.923 7.15 4.443 2.148 1.87 3.75 3.82 4.805 5.846A16.056 16.056 0 0162 60.127v1.755L2 62v-1.87l.007-.003zm3.75-1.753v.118l52.5-.118c-.35-1.715-1.093-3.43-2.227-5.145-1.406-1.753-2.969-3.234-4.688-4.443-1.797-1.208-3.946-2.3-6.446-3.274-2.461-.935-5.078-1.52-7.852-1.755l-1.64-.351v-9.472l.702-.702c.313-.079.665-.39 1.056-.935.117-.118.293-.352.527-.702.195-.312.332-.507.41-.586l.822-1.754c.235-.468.508-1.17.82-2.105l.353-1.287 1.29.118c0-.079.04-.157.118-.234l.235-.352a.647.647 0 00.118-.234.647.647 0 01.118-.234l.235-.701.234-.468c0-.235.04-.39.118-.468v-.585h-1.64l.352-2.69c0-.391.04-.625.118-.702v-1.755a7.046 7.046 0 010-2.223c0-.78.04-1.364.118-1.754l.353-1.404c.038-.155.195-.507.468-1.053 0-.156.04-.273.118-.352 0-.155.04-.273.119-.351v-.352c-.392-1.014-.9-1.794-1.525-2.339a13.125 13.125 0 00-2.462-1.403c-1.25-.312-2.187-.507-2.812-.585-1.289-.118-2.148-.157-2.578-.118l-.822-.118-1.758.352c-.469.117-.82.234-1.056.351-.235.156-.47.352-.703.586l-.353.935c-.273.274-.43.469-.468.586a1.31 1.31 0 01-.587.702 5.645 5.645 0 01-.821.701 1.514 1.514 0 01-1.29.234 13.38 13.38 0 01-.527.118 6.559 6.559 0 01-.527.234 1.754 1.754 0 00-.353.118c-.43.117-.703.429-.82.935-.236.468-.353 1.053-.353 1.755-.08.468-.119 1.442-.119 2.924v2.105c0 .311.04.585.119.82v.819c0 .467.039.818.118 1.053l.352 2.456-1.875-.351c0 .078.04.156.118.233 0 .156.04.274.119.352 0 .156.039.273.118.352 0 .156.039.273.118.352.117.35.235.584.352.701l.353.468.058.118.058.058c.039.038.078.058.118.058l.235.234 1.055.117.235 1.054c.312.935.586 1.637.82 2.104.313.703.665 1.326 1.056 1.871.548.897.86 1.404.938 1.521.391.507.743.818 1.055.936l.704.585v9.355l-1.525.233c-2.968.35-5.625.974-7.968 1.871-2.657 1.014-4.844 2.106-6.563 3.274-1.954 1.247-3.516 2.69-4.688 4.327a13.294 13.294 0 00-2.343 5.263l-.011-.002z" />
    </symbol>
    <symbol id="icon-de" viewBox="0 0 64 64">
        <path d="M2 42.314V7.216a4.5 4.5 0 01.471-2.051c.237-.664.59-1.21 1.062-1.64.394-.392.984-.782 1.77-1.172A5.207 5.207 0 017.246 2h49.506c.668 0 1.356.118 2.063.353.786.468 1.336.859 1.65 1.171.315.313.708.86 1.18 1.641.236.704.354 1.388.354 2.051v35.098c0 .82-.118 1.523-.355 2.11-.471.781-.864 1.328-1.178 1.64-.315.313-.865.684-1.65 1.114a4.57 4.57 0 01-2.064.469H25.576L9.016 62.002V47.647h-1.77c-.785 0-1.433-.156-1.944-.469-.785-.351-1.375-.722-1.769-1.114a4.563 4.563 0 01-1.062-1.64c-.314-.548-.471-1.25-.471-2.11zm3.536 0c0 .313.04.547.119.703.157.313.314.509.471.587.08.08.276.197.59.353.08.079.257.118.53.118h5.306v10.254l11.729-10.254h32.474c.275 0 .492-.04.649-.118.08-.079.276-.196.59-.353.08-.078.198-.274.355-.587.079-.156.119-.39.119-.703V7.216c0-.274-.04-.489-.12-.645-.078-.079-.197-.274-.354-.587-.314-.156-.51-.273-.59-.352-.157-.079-.374-.118-.649-.118H7.25c-.276 0-.452.04-.53.118-.315.156-.511.274-.59.352l-.295.293c-.079.156-.138.254-.177.292-.08.157-.119.372-.119.645v35.098l-.002.002zm11.433-8.731V16.355h7.544c2.633 0 4.656.684 6.07 2.051 1.415 1.407 2.122 3.477 2.122 6.212 0 2.93-.746 5.137-2.24 6.62-1.454 1.563-3.556 2.345-6.307 2.345h-7.191.002zm3.655-2.46h2.712c1.925 0 3.32-.509 4.185-1.525.943-1.055 1.414-2.637 1.414-4.745 0-1.72-.393-3.126-1.178-4.22-.51-.742-1.12-1.25-1.828-1.524-.629-.312-1.69-.468-3.183-.468h-2.122V31.123zm15.382 2.46V16.355h10.786v2.286H39.6v4.922h5.894v2.343H39.6v5.215h7.722v2.462H36.006z" />
    </symbol>
    <symbol id="icon-doc" viewBox="0 0 64 64">
        <path d="M9 62V2h27.107L55 20.75V62H9zm3.52-3.516h38.958V23.21h-17.72V5.514h-21.24v52.968l.002.002zm4.694-6.446v-3.515h29.335v3.515H17.214zm0-9.375v-3.515h29.335v3.515H17.214zm0-9.491h29.335v-3.516H17.214v3.516zM37.28 19.694h11.618L37.28 8.092v11.602z" />
    </symbol>
    <symbol id="icon-en" viewBox="0 0 64 64">
        <path d="M2 42.314V7.216a4.5 4.5 0 01.471-2.051c.237-.664.59-1.21 1.062-1.64.394-.392.984-.782 1.77-1.172A5.207 5.207 0 017.246 2h49.506c.668 0 1.356.118 2.063.353.786.468 1.336.859 1.65 1.171.315.313.708.86 1.18 1.641.236.704.354 1.388.354 2.051v35.098c0 .82-.118 1.523-.355 2.11-.471.781-.864 1.328-1.178 1.64-.315.313-.865.684-1.65 1.114a4.57 4.57 0 01-2.064.469H25.576L9.016 62.002V47.647h-1.77c-.785 0-1.433-.156-1.944-.469-.785-.351-1.375-.722-1.769-1.114a4.563 4.563 0 01-1.062-1.64c-.314-.548-.471-1.25-.471-2.11zm3.536 0c0 .313.04.547.119.703.157.313.314.509.471.587.08.08.276.197.59.353.08.079.257.118.53.118h5.306v10.254l11.729-10.254h32.474c.275 0 .492-.04.649-.118.08-.079.276-.196.59-.353.08-.078.198-.274.355-.587.079-.156.119-.39.119-.703V7.216c0-.274-.04-.489-.12-.645-.078-.079-.197-.274-.354-.587-.314-.156-.51-.273-.59-.352-.157-.079-.374-.118-.649-.118H7.25c-.276 0-.452.04-.53.118-.315.156-.511.274-.59.352l-.295.293c-.079.156-.138.254-.177.292-.08.157-.119.372-.119.645v35.098l-.002.002zm12.14-8.613V16.357H28.58v2.402h-7.25v4.805h5.952v2.344H21.33v5.333h7.838v2.462H17.674l.002-.002zm14.558 0V16.357h3.3l8.074 11.837V16.357h2.948V33.7h-3.3l-8.074-11.895V33.7h-2.948z" />
    </symbol>
    <symbol id="icon-info" viewBox="0 0 64 64">
        <path d="M2 32c0-4.062.781-7.968 2.344-11.718 1.445-3.476 3.593-6.64 6.445-9.493a29.714 29.714 0 019.61-6.445A29.607 29.607 0 0132 2c4.062 0 7.968.781 11.718 2.344 3.476 1.445 6.64 3.593 9.493 6.445 2.812 2.813 4.96 5.977 6.445 9.493C61.22 23.993 62 27.899 62 32c0 3.985-.781 7.852-2.344 11.602a29.714 29.714 0 01-6.445 9.609c-2.813 2.812-5.977 4.96-9.493 6.445C40.007 61.22 36.101 62 32 62c-3.985 0-7.852-.781-11.602-2.344a29.714 29.714 0 01-9.609-6.445 29.714 29.714 0 01-6.445-9.61A29.607 29.607 0 012 32zm3.515 0c0 3.711.703 7.148 2.11 10.312 1.445 3.28 3.359 6.054 5.742 8.32 2.227 2.344 5 4.258 8.321 5.743 3.164 1.407 6.601 2.11 10.312 2.11 3.711 0 7.148-.703 10.312-2.11 3.242-1.445 6.054-3.359 8.437-5.742 2.305-2.305 4.18-5.079 5.624-8.321 1.407-3.164 2.11-6.601 2.11-10.312 0-3.711-.703-7.148-2.11-10.312a29.52 29.52 0 00-5.624-8.437 29.52 29.52 0 00-8.437-5.624C39.148 6.22 35.71 5.517 32 5.517c-3.711 0-7.148.703-10.312 2.11-3.242 1.444-6.016 3.32-8.32 5.624-2.383 2.383-4.297 5.195-5.743 8.437C6.218 24.852 5.515 28.29 5.515 32zm21.211 17.225h10.546v-3.516h-3.515V26.492h-6.915v3.515h3.4v15.702h-3.516v3.516zm.585-29.646c0 .507.117.937.352 1.29.08.391.314.782.703 1.172.352.35.742.585 1.172.703.352.235.781.352 1.29.352.469 0 .938-.117 1.406-.352.352-.118.703-.352 1.056-.703.312-.313.586-.703.821-1.172.156-.469.234-.899.234-1.29 0-.313-.078-.781-.234-1.406-.312-.469-.586-.82-.821-1.056-.235-.235-.587-.509-1.056-.821-.625-.156-1.093-.234-1.406-.234-.391 0-.821.078-1.29.234-.468.235-.859.509-1.172.821-.35.351-.585.703-.703 1.056a3.113 3.113 0 00-.352 1.406z" />
    </symbol>
    <symbol id="icon-listview" viewBox="0 0 64 64">
        <path d="M4 54V44h56v10H4zm0-17V27h56v10H4zm0-17h56V10H4v10z" />
    </symbol>
    <symbol id="icon-tileview" viewBox="0 0 64 64">
        <path d="M60 34v20H34V34h26zm-30 0v20H4V34h26zm30-24v20H34V10h26zm-30 0v20H4V10h26z" />
    </symbol>
    <symbol id="icon-fullview" viewBox="0 0 64 64">
        <path d="M60 46v8H34v-8h26zM30 36v18H4V36h26zm30 0v8H34v-8h26zm0-16v8H34v-8h26zM30 10v18H4V10h26zm30 0v8H34v-8h26z" />
    </symbol>
    <symbol id="icon-mail" viewBox="0 0 64 64">
        <path d="M2 54V10h60v44H2zm3.516-6.174l16.758-15.828L5.516 16.171V47.826zm2.109-34.459L32 36.49l24.375-23.123H7.625zm.118 37.266h48.165L39.033 34.58l-7.031 6.623-7.15-6.735L7.743 50.633zm33.75-18.409l16.993 15.94V16.172L41.493 32.224z" />
    </symbol>
    <symbol id="icon-menu" viewBox="0 0 64 64">
        <path d="M2 48v-3.543h60V48H2zm0-14.17v-3.543h60v3.543H2zm0-14.287h60V16H2v3.543z" />
    </symbol>
    <symbol id="icon-more" viewBox="0 0 64 64">
        <path d="M2 32.033c0 .86.196 1.758.587 2.696.43.976.938 1.718 1.524 2.227.469.586 1.211 1.094 2.227 1.524.9.392 1.798.587 2.697.587.937 0 1.874-.195 2.812-.587.976-.43 1.719-.938 2.227-1.524A7.086 7.086 0 0015.6 34.73c.312-.704.468-1.603.468-2.696 0-1.133-.156-2.07-.468-2.813-.235-.547-.744-1.29-1.525-2.227a7.086 7.086 0 00-2.227-1.524c-.704-.313-1.641-.469-2.812-.469-1.055 0-1.954.156-2.697.469-.82.35-1.562.859-2.227 1.524a7.073 7.073 0 00-1.524 2.227A6.973 6.973 0 002 32.033zm22.967 0c0-.938.196-1.875.587-2.813.351-.82.86-1.562 1.524-2.227a7.073 7.073 0 012.228-1.524c.703-.313 1.602-.469 2.696-.469 1.055 0 1.954.156 2.696.469.704.312 1.485.82 2.344 1.524.78.937 1.289 1.68 1.524 2.227.312.704.469 1.642.469 2.813 0 1.055-.157 1.953-.47 2.696a7.073 7.073 0 01-1.523 2.227c-.587.586-1.368 1.094-2.344 1.524-.899.392-1.797.587-2.696.587-.86 0-1.759-.195-2.696-.587-.976-.43-1.719-.938-2.228-1.524-.586-.469-1.094-1.211-1.524-2.227-.391-.899-.587-1.798-.587-2.696zm22.968 0c0-.938.195-1.875.586-2.813.313-.742.782-1.485 1.407-2.227a7.086 7.086 0 012.227-1.524c.704-.313 1.641-.469 2.812-.469 1.055 0 1.954.156 2.696.469.704.312 1.485.82 2.344 1.524.781.937 1.29 1.68 1.524 2.227.313.704.469 1.642.469 2.813 0 1.055-.156 1.953-.469 2.696a7.073 7.073 0 01-1.524 2.227c-.586.586-1.367 1.094-2.344 1.524-.898.392-1.797.587-2.696.587-.937 0-1.875-.195-2.812-.587-.976-.43-1.719-.938-2.227-1.524-.508-.507-.977-1.25-1.407-2.227-.39-.899-.586-1.798-.586-2.696z" />
    </symbol>
    <symbol id="icon-pdf" viewBox="0 0 64 64">
        <path d="M9 62V2h27.107L55 20.75V62H9zm3.52-3.516h38.958V23.21h-17.72V5.514h-21.24v52.968l.002.002zm3.873-5.625c.236-.898.862-1.797 1.878-2.696.665-.86 1.956-1.837 3.873-2.93.274-.118.509-.04.704.234v.118c.705-1.133 1.8-3.086 3.286-5.86 1.564-3.28 2.62-5.859 3.169-7.734-.508-1.641-.821-3.203-.939-4.687-.117-1.641-.04-2.891.235-3.75.235-.781.626-1.172 1.173-1.172h.704c.392 0 .745.156 1.057.469.352.43.47 1.094.353 1.993l-.118.234v1.172c-.118 2.656-.274 4.531-.47 5.625 1.018 3.047 2.466 5.391 4.343 7.031 1.252.82 2.113 1.367 2.582 1.64 1.564-.155 2.738-.233 3.52-.233 2.934 0 4.694.468 5.281 1.406.352.468.392.977.119 1.524 0 .079-.04.118-.119.118v.118c-.117.704-.821 1.056-2.112 1.056-.782 0-1.955-.196-3.52-.587-1.564-.43-2.894-.938-3.99-1.524-4.263.468-8.174 1.29-11.734 2.462-3.051 5.156-5.438 7.734-7.159 7.734-.156 0-.469-.078-.938-.234l-.704-.353c-.08-.079-.157-.118-.235-.118-.157-.156-.235-.508-.235-1.056h-.004zm1.994.117c1.018-.508 2.387-2.07 4.108-4.688a12.13 12.13 0 00-2.7 2.578c-.86.977-1.33 1.68-1.408 2.11zm8.214-7.617a50.133 50.133 0 018.449-2.462c-.079 0-.197-.078-.353-.234l-.353-.352c-1.603-1.25-2.894-2.97-3.873-5.157-.626 1.758-1.487 3.672-2.582 5.743l-1.288 2.462zm3.639-15.587l.235-1.29c0-.312.039-.742.118-1.29l.235-.234h-.119v-.118c0-.469-.117-.82-.353-1.056v.119c-.391.937-.43 2.226-.118 3.868l.002.002zm7.04-10.078h11.618L37.28 8.092v11.602zm4.576 24.494c1.29.547 2.503.82 3.638.82h.588l-.118-.117c-.47-.47-1.839-.703-4.108-.703z" />
    </symbol>
    <symbol id="icon-phone" viewBox="0 0 64 64">
        <path d="M45.275 61.425c2.96.955 5.633.382 8.02-1.72h.144l7.018-7.16c.955-.955 1.432-2.149 1.432-3.581 0-1.433-.477-2.626-1.432-3.581l-9.167-9.167-.143-.286c-.955-.86-2.148-1.29-3.58-1.29-1.433 0-2.627.43-3.582 1.29l-4.583 4.583c-3.533-1.623-6.636-3.724-9.31-6.302-2.673-2.578-4.822-5.73-6.445-9.453l4.583-4.583c.955-.955 1.433-2.125 1.433-3.51 0-1.384-.526-2.506-1.576-3.365l.143-.144-.143-.143L18.92 3.56l-.286-.286c-1.05-.764-2.172-1.146-3.366-1.146s-2.315.382-3.366 1.146l-.143.143v.143l-7.162 7.305v.143c-2.387 2.1-3.055 4.679-2.005 7.734 3.438 9.644 8.976 18.334 16.615 26.068 7.066 6.97 15.755 12.509 26.068 16.615zm5.013-5.157c-1.05.955-2.244 1.194-3.581.717-9.644-3.82-17.713-8.976-24.206-15.47-7.257-7.256-12.46-15.372-15.612-24.348-.382-1.241-.095-2.244.86-3.008v-.143l7.018-7.018c.19-.191.358-.287.501-.287.143 0 .31.096.501.287l9.167 9.31.143.143h.143c.096.19 0 .382-.286.573l-5.73 5.729-1.002 1.002.43 1.433.86 1.862c.572 1.336 1.527 3.031 2.864 5.084 1.337 2.053 2.864 3.844 4.583 5.371l.43.43c3.533 3.247 7.4 5.73 11.601 7.448l1.433.716 1.146-1.002 5.729-5.73c.19-.286.382-.286.573 0l9.453 9.31c.19.191.19.43 0 .716l-7.018 6.875z" />
    </symbol>
    <symbol id="icon-print" viewBox="0 0 64 64">
        <path d="M2 51.163V23.087h10.547V2h22.968l15.82 14.678v6.409H62v28.076H51.453v10.835H12.548V51.163H2zm3.516-3.495h7.03V37.417h38.906v10.251h7.03V26.582H5.517v21.086zM9.03 33.571h3.516v-3.495H9.03v3.495zm7.031 24.93h31.874V40.91H16.062V58.5zm0-24.93h3.634v-3.495h-3.634v3.495zm0-10.484H47.82v-3.495H33.758V5.495H16.062v17.592zm3.634 31.571h14.062v-3.495H19.696v3.495zm0-6.99h21.093v-3.612H19.696v3.612zm17.577-31.687h8.203l-8.203-7.573v7.573z" />
    </symbol>
    <symbol id="icon-rss" viewBox="0 0 64 64">
        <path d="M2 54.965c.079-1.055.294-1.993.645-2.813.43-.976.938-1.718 1.524-2.227a7.086 7.086 0 012.228-1.524c.742-.313 1.64-.469 2.696-.469 1.054 0 1.992.156 2.812.469.82.351 1.562.86 2.227 1.524.548.507 1.016 1.25 1.406 2.227.43.938.606 1.875.527 2.813.079.82-.077 1.718-.469 2.696-.43.937-.898 1.68-1.406 2.227-.507.586-1.25 1.094-2.227 1.524-1.055.391-1.992.587-2.812.587-.899 0-1.798-.196-2.696-.587-1.017-.43-1.759-.938-2.228-1.524-.586-.469-1.094-1.211-1.524-2.227-.351-.782-.586-1.68-.703-2.696zm0-28.241c4.922 0 9.59.898 14.003 2.696 4.219 1.797 8.008 4.336 11.368 7.617 3.28 3.164 5.858 6.913 7.733 11.25 1.758 4.335 2.695 8.906 2.813 13.71h3.515c.117-5.194-.879-10.233-2.989-15.117-2.11-4.687-4.922-8.788-8.436-12.304-3.789-3.633-7.969-6.406-12.54-8.321a39.867 39.867 0 00-15.35-3.047L2 26.724zM2 5.515L2.058 2c8.32 0 16.17 1.524 23.554 4.57 7.382 3.164 13.749 7.422 19.1 12.774 5.274 5.391 9.493 11.719 12.656 18.983 3.164 7.382 4.707 15.272 4.63 23.67h-3.4c-.117-8.047-1.602-15.43-4.453-22.147-2.93-6.914-6.914-12.89-11.952-17.93-5.312-5.156-11.288-9.179-17.93-12.07C17.429 6.959 10.008 5.513 2 5.513v.002zm3.632 49.45c-.118.43-.06.86.176 1.29.235.468.509.859.821 1.171.235.352.587.586 1.056.703.468.235.898.353 1.29.353.663 0 1.171-.118 1.524-.353.35-.117.703-.351 1.055-.703.469-.468.743-.859.821-1.171a4.03 4.03 0 00.119-.645c.038-.274.078-.49.118-.645 0-.157-.02-.391-.058-.703a6.09 6.09 0 00-.119-.703c-.117-.352-.39-.742-.82-1.172-.352-.352-.704-.586-1.056-.703a4.792 4.792 0 00-1.525-.235c-.235 0-.664.078-1.29.235-.468.117-.82.351-1.055.703-.079.078-.352.47-.821 1.172-.274.507-.352.976-.235 1.406h-.001z" />
    </symbol>
    <symbol id="icon-sort" viewBox="0 0 64 64">
        <path d="M2 33.761V30.24h60v3.522H2zm19.922 17.142L32 61l10.078-10.097-2.462-2.467-5.86 5.87V40.923h-3.515v13.385l-5.86-5.87-2.46 2.466zm0-37.806L32 3l10.078 10.097-2.462 2.467-5.86-5.87v13.384h-3.515V9.693l-5.86 5.87-2.46-2.466z" />
    </symbol>
    <symbol id="icon-story-picture" viewBox="0 0 64 64">
        <path d="M2 62V2h60v60H2zm3.982-3.982h52.036v-7.965H5.982v7.965zm0-12.081h52.036V5.98H5.982v39.957zm3.32-7.168l3.32 2.258 13.54-19.78 9.956 17.522 6.24-6.637 9.692 9.426 2.788-2.92-12.611-12.213-5.31 5.709L26.563 13.68 9.302 38.77z" />
    </symbol>
    <symbol id="icon-story-video" viewBox="0 0 64 64">
        <path d="M2 62V2l60 29.829L2 62zm5.143-8.399L50.516 31.83 7.143 10.399V53.6z" />
    </symbol>
    
    <symbol id="icon-xls" viewBox="0 0 64 64">
        <path d="M9 62V2h26.52L55 20.75V62H9zm3.639-3.516h38.724V23.21H33.057V5.514H12.64V58.484zm4.34-5.39V32.116h29.807v20.978H16.98zm2.817-2.697h10.326v-4.805H19.796v4.806zm0-7.5h10.326v-4.805H19.796v4.806zm13.143 7.5h11.03v-4.805H32.94v4.806zm0-7.5h11.03v-4.805H32.94v4.806zm3.755-23.203h11.97L36.693 8.092v11.602z" />
    </symbol>
    <symbol id="icon-zoom-minus" viewBox="0 0 64 64">
        <path d="M2.002 25.52c0-1.72.16-3.28.48-4.68.2-1.28.64-2.72 1.32-4.32.561-1.32 1.281-2.68 2.16-4.08.84-1.32 1.8-2.52 2.88-3.6 1.08-1.08 2.28-2.04 3.6-2.88 1.4-.88 2.76-1.6 4.08-2.16.96-.44 2.4-.88 4.32-1.32 1.36-.32 2.92-.48 4.68-.48 3.2 0 6.24.6 9.12 1.8 2.88 1.32 5.4 3 7.56 5.04 2 2.12 3.68 4.6 5.04 7.44 1.2 2.88 1.8 5.96 1.8 9.24 0 1.48-.12 2.88-.36 4.201-.4 1.64-.8 3-1.2 4.08a16.81 16.81 0 01-1.801 3.6c-.48.8-1.28 1.92-2.4 3.36L62 59.478 59.48 62 40.76 43.281c-1.44 1.12-2.52 1.92-3.24 2.4-1.24.76-2.48 1.36-3.721 1.8-1.32.48-2.64.841-3.96 1.082-1.28.32-2.72.48-4.32.48-3.4 0-6.44-.64-9.12-1.92-2.92-1.2-5.4-2.88-7.44-5.04-2.119-2-3.799-4.48-5.04-7.44C2.64 31.844 2 28.804 2 25.525l.002-.004zm3.6 0c0 2.8.52 5.36 1.56 7.68 1 2.36 2.44 4.48 4.32 6.36 1.72 1.72 3.84 3.12 6.36 4.201 2.481 1.12 5.041 1.68 7.68 1.68 2.64 0 5.2-.56 7.68-1.68 2.48-1.12 4.6-2.56 6.36-4.32 1.68-1.68 3.081-3.76 4.201-6.24 1.04-2.32 1.56-4.88 1.56-7.679 0-2.76-.52-5.36-1.56-7.8-1.16-2.6-2.56-4.72-4.2-6.36-1.6-1.6-3.72-3-6.361-4.201-2.32-1.04-4.88-1.561-7.68-1.561-1.32 0-2.64.12-3.96.36-1.48.401-2.72.801-3.721 1.2-1.08.44-2.2 1.041-3.36 1.801-1.28.84-2.28 1.68-3 2.521-1.041 1.04-1.881 2.041-2.521 3.001-.6.92-1.201 2.04-1.801 3.36-.52 1.08-.92 2.32-1.2 3.72-.24 1.32-.361 2.64-.361 3.961l.004-.004zM16.4 27.321h18.12v-3.6H16.4v3.6z" />
    </symbol>
    <symbol id="icon-zoom-plus" viewBox="0 0 64 64">
        <path d="M2.002 25.524c0-1.72.16-3.28.48-4.68.44-1.88.88-3.36 1.32-4.441.601-1.32 1.321-2.64 2.16-3.96.84-1.322 1.8-2.522 2.88-3.6 1.28-1.28 2.48-2.28 3.6-3.001 1.04-.64 2.4-1.32 4.08-2.041.96-.44 2.4-.88 4.32-1.321 1.36-.32 2.92-.48 4.68-.48 3.2 0 6.24.6 9.12 1.8 2.88 1.32 5.4 3 7.56 5.04 2 2.12 3.68 4.6 5.04 7.44 1.2 2.88 1.8 5.96 1.8 9.24 0 1.48-.12 2.88-.36 4.201-.4 1.64-.8 3-1.2 4.08a16.81 16.81 0 01-1.801 3.6c-.48.8-1.28 1.92-2.4 3.36L62 59.478 59.48 62 40.76 43.281c-1.44 1.12-2.52 1.92-3.24 2.4-1.24.76-2.48 1.36-3.721 1.8-1.32.48-2.64.841-3.96 1.082-1.28.32-2.72.48-4.32.48-3.4 0-6.44-.64-9.12-1.92-2.92-1.2-5.4-2.88-7.44-5.04-2.119-2-3.799-4.48-5.04-7.44C2.64 31.844 2 28.804 2 25.525h.002zm3.6 0c0 2.8.52 5.36 1.56 7.68 1.041 2.319 2.481 4.399 4.32 6.24 1.84 1.84 3.96 3.28 6.36 4.32 2.321 1.04 4.881 1.56 7.68 1.56 2.8 0 5.36-.52 7.68-1.56 2.48-1.12 4.6-2.56 6.36-4.32 1.68-1.681 3.081-3.761 4.201-6.24 1.04-2.32 1.56-4.88 1.56-7.68 0-2.76-.52-5.36-1.56-7.8-1.16-2.6-2.56-4.72-4.2-6.36-1.6-1.6-3.72-3-6.361-4.201-2.32-1.041-4.88-1.561-7.68-1.561-1.32 0-2.64.12-3.96.36-1.24.2-2.48.56-3.721 1.082-1.28.64-2.4 1.28-3.36 1.92-1.28.839-2.28 1.68-3 2.52-.96.84-1.8 1.8-2.521 2.88-.68 1-1.28 2.16-1.801 3.48-.52 1.081-.92 2.321-1.2 3.721-.24 1.32-.361 2.64-.361 3.961l.004-.002zm10.799 1.8h7.32v7.199h3.6v-7.2h7.2v-3.6h-7.2v-7.32h-3.6v7.32h-7.32v3.6z" />
    </symbol>   
    <symbol id="icon-play" viewBox="0 0 64 64">
        <path d="M32 2c4.062 0 7.968.781 11.718 2.344 3.476 1.445 6.64 3.593 9.493 6.445 2.812 2.813 4.96 5.977 6.445 9.493C61.22 23.993 62 27.899 62 32c0 3.985-.781 7.852-2.344 11.602a29.714 29.714 0 01-6.445 9.609c-2.813 2.812-5.977 4.96-9.493 6.445C40.007 61.22 36.101 62 32 62c-3.985 0-7.852-.781-11.602-2.344a29.714 29.714 0 01-9.609-6.445 29.714 29.714 0 01-6.445-9.61A29.607 29.607 0 012 32c0-4.062.781-7.968 2.344-11.718 1.445-3.476 3.593-6.64 6.445-9.493a29.714 29.714 0 019.61-6.445A29.607 29.607 0 0132 2zm0 3.517c-3.711 0-7.148.703-10.312 2.11-3.242 1.444-6.016 3.32-8.32 5.624-2.383 2.383-4.297 5.195-5.743 8.437C6.218 24.852 5.515 28.29 5.515 32c0 3.711.703 7.148 2.11 10.312 1.445 3.28 3.359 6.054 5.742 8.32 2.227 2.344 5 4.258 8.321 5.743 3.164 1.407 6.601 2.11 10.312 2.11 3.711 0 7.148-.703 10.312-2.11 3.242-1.445 6.054-3.359 8.437-5.742 2.305-2.305 4.18-5.079 5.624-8.321 1.407-3.164 2.11-6.601 2.11-10.312 0-3.711-.703-7.148-2.11-10.312a29.52 29.52 0 00-5.624-8.437 29.52 29.52 0 00-8.437-5.624C39.148 6.22 35.71 5.517 32 5.517zM23 18l24 13.889c-8 4.704-16 9.408-24 14.11V18z" />
    </symbol>   
    <symbol id="icon-check" viewBox="0 0 64 64">
        <path d="M7 40.826l3.095-3.24 14.343 13.49L53.753 6l3.684 2.357L25.176 58z" />
    </symbol>
    <symbol id="icon-trash" viewBox="0 0 64 64">
        <path d="M46.6652857,61 C48.6787143,61 50.3938571,60.2957143 51.8024286,58.8871429 C53.211,57.4785714 53.9152857,55.7634286 53.9152857,53.75 L53.9152857,15.0847143 L56.3347143,15.0847143 L56.3347143,11.25 L41.8347143,11.25 L41.8347143,8.83471429 C41.8347143,7.42614286 41.379,6.26614286 40.4758571,5.35885714 C39.5644286,4.45571429 38.4085714,4 37,4 L27.3347143,4 C25.9261429,4 24.7661429,4.45571429 23.8588571,5.35885714 C22.9515714,6.26614286 22.5,7.422 22.5,8.83471429 L22.5,11.25 L8,11.25 L8,15.0847143 L10.4152857,15.0847143 L10.4152857,53.75 C10.4152857,55.7634286 11.1195714,57.4785714 12.5281429,58.8871429 C13.9408571,60.2957143 15.6518571,61 17.6652857,61 L46.6652857,61 Z M38,11.25 L26.3347143,11.25 L26.3347143,6.83471429 L38,6.83471429 L38,11.25 Z M47.6652857,57.1652857 L16.6652857,57.1652857 C16.0181714,57.1872429 15.3897,56.9415714 14.9294286,56.4858571 C14.4737143,56.0255857 14.2280429,55.3971143 14.25,54.75 L14.25,15.0847143 L50.0847143,15.0847143 L50.0847143,54.75 C50.0847143,55.4542857 49.8568571,56.0342857 49.4052857,56.49 C48.9433571,56.9453 48.3132286,57.1897286 47.6652857,57.1652857 Z M20.0847143,48.9152857 L23.9152857,48.9152857 L23.9152857,22.3347143 L20.0847143,22.3347143 L20.0847143,48.9152857 Z M30.5,48.9152857 L34.3347143,48.9152857 L34.3347143,22.3347143 L30.5,22.3347143 L30.5,48.9152857 Z M40.4152857,48.9152857 L44.25,48.9152857 L44.25,22.3347143 L40.4152857,22.3347143 L40.4152857,48.9152857 Z" />
    </symbol>
</svg>