<?xml version="1.0" encoding="UTF-8"?>
<svg width="122px" height="32px" viewBox="0 0 122 32" version="1.1" xmlns="http://www.w3.org/2000/svg" xmlns:xlink="http://www.w3.org/1999/xlink">
    <title>fresenius-kabi</title>
    <g id="fresenius-kabi" stroke="none" stroke-width="1" fill="none" fill-rule="evenodd">
        <path d="M13,1.77635684e-15 L16.813,1.77635684e-15 L16.907,0.094 L17.126,0.438 C17.2926667,0.667333333 17.3863333,0.855 17.407,1.001 C17.449,1.16766667 17.5323333,1.449 17.657,1.845 C17.761,2.241 17.7923333,2.60566667 17.751,2.939 C17.751,3.293 17.6676667,3.939 17.501,4.877 C17.3343333,5.83566667 17.251,6.48166667 17.251,6.815 C17.251,7.48166667 17.3656667,8.05466667 17.595,8.534 C17.845,9.01333333 18.1576667,9.378 18.533,9.628 C18.9083333,9.89866667 19.3353333,10.1383333 19.814,10.347 C20.2726667,10.5763333 20.731,10.8263333 21.189,11.097 C21.647,11.3676667 22.074,11.6906667 22.47,12.066 C22.8453333,12.462 23.1473333,13.014 23.376,13.722 C23.626,14.4306667 23.751,15.2743333 23.751,16.253 L23.751,25.628 L19.938,25.628 L19.938,16.253 C19.938,15.4823333 19.865,14.8053333 19.719,14.222 C19.573,13.618 19.375,13.1283333 19.125,12.753 C18.875,12.3776667 18.5936667,12.0443333 18.281,11.753 C17.9476667,11.461 17.604,11.2213333 17.25,11.034 L16.187,10.471 C15.833,10.3043333 15.4996667,10.1166667 15.187,9.908 C14.8536667,9.72066667 14.562,9.49133333 14.312,9.22 C14.062,8.97 13.864,8.647 13.718,8.251 C13.572,7.83433333 13.499,7.355 13.499,6.813 C13.499,6.47966667 13.572,5.84433333 13.718,4.907 C13.864,3.94833333 13.937,3.292 13.937,2.938 C13.937,2.334 13.864,1.782 13.718,1.282 C13.5513333,0.802666667 13.395,0.469333333 13.249,0.282 L13,1.77635684e-15 Z M20.125,1.77635684e-15 L23.938,1.77635684e-15 L24.032,0.094 L24.251,0.438 C24.4176667,0.667333333 24.5113333,0.855 24.532,1.001 C24.574,1.16766667 24.6573333,1.449 24.782,1.845 C24.886,2.241 24.9173333,2.60566667 24.876,2.939 C24.876,3.293 24.803,3.939 24.657,4.877 C24.511,5.83566667 24.438,6.48166667 24.438,6.815 C24.438,7.419 24.5316667,7.94 24.719,8.378 C24.8856667,8.81533333 25.1253333,9.159 25.438,9.409 C25.73,9.63833333 26.0736667,9.86766667 26.469,10.097 C26.8443333,10.3263333 27.2403333,10.5346667 27.657,10.722 C28.053,10.8886667 28.449,11.118 28.845,11.41 C29.2203333,11.702 29.564,12.0353333 29.876,12.41 C30.168,12.7853333 30.4076667,13.3063333 30.595,13.973 C30.7823333,14.619 30.876,15.3793333 30.876,16.254 L30.876,25.629 L27.063,25.629 L27.063,16.254 C27.063,15.4833333 26.99,14.8063333 26.844,14.223 C26.698,13.619 26.5,13.1293333 26.25,12.754 C26,12.3786667 25.7186667,12.0453333 25.406,11.754 C25.0726667,11.462 24.729,11.2223333 24.375,11.035 L23.312,10.472 C22.958,10.3053333 22.6246667,10.1176667 22.312,9.909 C21.9786667,9.72166667 21.687,9.49233333 21.437,9.221 C21.187,8.971 20.989,8.648 20.843,8.252 C20.697,7.83533333 20.624,7.356 20.624,6.814 C20.624,6.48066667 20.7073333,5.84533333 20.874,4.908 C21.0406667,3.94933333 21.124,3.293 21.124,2.939 C21.124,2.56366667 21.0926667,2.199 21.03,1.845 C20.9673333,1.51166667 20.884,1.23033333 20.78,1.001 C20.676,0.792333333 20.5716667,0.604666667 20.467,0.438 C20.3836667,0.292 20.3003333,0.177333333 20.217,0.094 L20.125,1.77635684e-15 Z M27.188,1.77635684e-15 L31.001,1.77635684e-15 L31.095,0.094 L31.314,0.438 C31.4806667,0.667333333 31.5743333,0.855 31.595,1.001 C31.637,1.16766667 31.7203333,1.449 31.845,1.845 C31.949,2.241 31.9803333,2.60566667 31.939,2.939 C31.939,3.293 31.866,3.939 31.72,4.877 C31.574,5.83566667 31.501,6.48166667 31.501,6.815 C31.501,7.419 31.5946667,7.94 31.782,8.378 C31.9486667,8.81533333 32.1883333,9.159 32.501,9.409 C32.793,9.63833333 33.1366667,9.86766667 33.532,10.097 C33.9073333,10.3263333 34.3033333,10.5346667 34.72,10.722 C35.116,10.8886667 35.512,11.118 35.908,11.41 C36.2833333,11.702 36.627,12.0353333 36.939,12.41 C37.231,12.7853333 37.4706667,13.3063333 37.658,13.973 C37.8453333,14.619 37.939,15.3793333 37.939,16.254 L37.939,25.629 L34.126,25.629 L34.126,16.254 C34.126,15.4833333 34.053,14.8063333 33.907,14.223 C33.761,13.619 33.563,13.1293333 33.313,12.754 C33.063,12.3786667 32.7816667,12.0453333 32.469,11.754 C32.1356667,11.462 31.792,11.2223333 31.438,11.035 L30.375,10.472 C30.021,10.3053333 29.6876667,10.1176667 29.375,9.909 C29.0416667,9.72166667 28.75,9.49233333 28.5,9.221 C28.25,8.971 28.052,8.648 27.906,8.252 C27.76,7.83533333 27.687,7.356 27.687,6.814 C27.687,6.48066667 27.76,5.84533333 27.906,4.908 C28.052,3.94933333 28.125,3.293 28.125,2.939 C28.125,2.335 28.052,1.783 27.906,1.283 C27.7393333,0.803666667 27.583,0.470333333 27.437,0.283 L27.188,1.77635684e-15 Z M48.625,25.625 L48.625,17.75 L50.688,17.75 L50.688,20.75 L53.001,17.75 L55.439,17.75 L53.064,20.5 L55.814,25.625 L53.439,25.625 L51.626,22.125 L50.688,23.313 L50.688,25.626 L48.625,25.626 L48.625,25.625 Z M48.625,13.812 L48.625,5.937 L54.563,5.937 L54.563,7.687 L50.625,7.687 L50.625,8.875 L53.438,8.875 L53.438,10.625 L50.625,10.625 L50.625,13.813 L48.625,13.813 L48.625,13.812 Z M55.313,13.812 L55.313,5.937 L58.938,5.937 C59.834,5.937 60.5423333,6.14533333 61.063,6.562 C61.605,6.97866667 61.876,7.62466667 61.876,8.5 C61.876,9.56266667 61.3966667,10.3336667 60.438,10.813 L62.001,13.813 L59.751,13.813 L58.376,11.125 L57.251,11.125 L57.251,13.813 L55.313,13.813 L55.313,13.812 Z M56.125,25.625 L59.063,17.75 L61.063,17.75 L63.938,25.625 L61.813,25.625 L61.313,24.125 L58.75,24.125 L58.25,25.625 L56.125,25.625 Z M57.25,9.437 L58.813,9.437 C59.5216667,9.437 59.876,9.12433333 59.876,8.499 C59.876,7.91566667 59.5426667,7.624 58.876,7.624 L57.251,7.624 L57.251,9.437 L57.25,9.437 Z M59.25,22.5 L60.813,22.5 L60.063,19.937 L59.25,22.5 Z M63,13.812 L63,5.937 L68.688,5.937 L68.688,7.687 L65,7.687 L65,8.812 L67.5,8.812 L67.5,10.562 L65,10.562 L65,12.062 L69,12.062 L69,13.812 L63,13.812 Z M64.75,25.625 L64.75,17.75 L68.5,17.75 C70.292,17.75 71.188,18.4376667 71.188,19.813 C71.188,20.5003333 70.8753333,21.0213333 70.25,21.376 C71,21.7093333 71.375,22.2926667 71.375,23.126 C71.375,23.9386667 71.125,24.5533333 70.625,24.97 C70.1456667,25.4073333 69.4163333,25.626 68.437,25.626 L64.749,25.626 L64.75,25.625 Z M66.688,24 L68.501,24 C68.793,24 69.0223333,23.9166667 69.189,23.75 C69.3556667,23.604 69.439,23.3956667 69.439,23.125 C69.439,22.583 69.1263333,22.312 68.501,22.312 L66.688,22.312 L66.688,24 Z M66.688,20.75 L68.438,20.75 C68.938,20.75 69.188,20.5206667 69.188,20.062 C69.188,19.6033333 68.938,19.374 68.438,19.374 L66.688,19.374 L66.688,20.749 L66.688,20.75 Z M69.375,12.812 L70.438,11.374 C70.73,11.6033333 71.0843333,11.791 71.501,11.937 C71.9176667,12.1036667 72.3136667,12.187 72.689,12.187 C73.481,12.187 73.877,11.9786667 73.877,11.562 C73.877,11.3746667 73.7726667,11.2183333 73.564,11.093 C73.3766667,10.989 72.9806667,10.8536667 72.376,10.687 C71.4173333,10.4783333 70.7193333,10.2073333 70.282,9.874 C69.8446667,9.52 69.626,8.97833333 69.626,8.249 C69.626,7.51966667 69.9073333,6.926 70.47,6.468 C71.0326667,6.03066667 71.7723333,5.812 72.689,5.812 C73.8556667,5.812 74.8766667,6.14533333 75.752,6.812 L74.689,8.312 C73.9183333,7.812 73.21,7.562 72.564,7.562 C71.9806667,7.562 71.689,7.74966667 71.689,8.125 C71.689,8.31233333 71.7723333,8.44766667 71.939,8.531 C72.1263333,8.635 72.5013333,8.74966667 73.064,8.875 C74.0226667,9.10433333 74.731,9.40633333 75.189,9.781 C75.647,10.1556667 75.8763333,10.7076667 75.877,11.437 C75.877,12.2496667 75.5956667,12.8746667 75.033,13.312 C74.4496667,13.7286667 73.6476667,13.937 72.627,13.937 C72.0016667,13.937 71.3973333,13.8326667 70.814,13.624 C70.2306667,13.4366667 69.7513333,13.1656667 69.376,12.811 L69.375,12.812 Z M72.688,25.625 L72.688,17.75 L74.688,17.75 L74.688,25.625 L72.688,25.625 Z M76.938,13.812 L76.938,5.937 L82.626,5.937 L82.626,7.687 L78.876,7.687 L78.876,8.812 L81.376,8.812 L81.376,10.562 L78.876,10.562 L78.876,12.062 L82.939,12.062 L82.939,13.812 L76.939,13.812 L76.938,13.812 Z M83.875,13.812 L83.875,5.937 L85.688,5.937 L88.688,10.25 L88.688,5.937 L90.626,5.937 L90.626,13.812 L89.001,13.812 L85.813,9.312 L85.813,13.812 L83.875,13.812 Z M92.063,13.812 L92.063,5.937 L94.126,5.937 L94.126,13.812 L92.063,13.812 Z M95.438,10.437 L95.438,5.937 L97.438,5.937 L97.438,10.437 C97.438,11.5623333 97.8963333,12.125 98.813,12.125 C99.2503333,12.125 99.5836667,11.979 99.813,11.687 C100.063,11.395 100.188,10.9783333 100.188,10.437 L100.188,5.937 L102.188,5.937 L102.188,10.437 C102.188,11.583 101.875333,12.4476667 101.25,13.031 C100.646,13.635 99.8333333,13.937 98.812,13.937 C97.77,13.937 96.947,13.6453333 96.343,13.062 C95.739,12.4993333 95.437,11.6243333 95.437,10.437 L95.438,10.437 Z M102.875,12.812 L104,11.374 C104.687333,11.916 105.416667,12.187 106.188,12.187 C106.604667,12.187 106.906667,12.135 107.094,12.031 C107.281333,11.9476667 107.375,11.7913333 107.375,11.562 C107.375,11.3746667 107.270667,11.2183333 107.062,11.093 C106.874667,10.989 106.478667,10.8536667 105.874,10.687 C104.936667,10.4996667 104.249,10.2286667 103.811,9.874 C103.394333,9.54066667 103.186,8.999 103.186,8.249 C103.186,7.499 103.457,6.90533333 103.999,6.468 C104.541,6.03066667 105.270333,5.812 106.187,5.812 C107.353667,5.812 108.374667,6.14533333 109.25,6.812 L108.187,8.312 C107.478333,7.812 106.77,7.562 106.062,7.562 C105.478667,7.562 105.187,7.74966667 105.187,8.125 C105.187,8.31233333 105.270333,8.44766667 105.437,8.531 C105.624333,8.635 105.999333,8.74966667 106.562,8.875 C107.520667,9.10433333 108.229,9.40633333 108.687,9.781 C109.145,10.1556667 109.374333,10.7076667 109.375,11.437 C109.375,12.2496667 109.093667,12.8746667 108.531,13.312 C107.947667,13.7286667 107.145667,13.937 106.125,13.937 C105.499667,13.937 104.895333,13.8326667 104.312,13.624 C103.728667,13.4366667 103.249333,13.1656667 102.874,12.811 L102.875,12.812 Z" id="Shape" fill="#0065A3" fill-rule="nonzero"></path>
    </g>
</svg>