<?xml version="1.0" encoding="UTF-8"?>
<svg width="122px" height="32px" viewBox="0 0 122 32" version="1.1" xmlns="http://www.w3.org/2000/svg" xmlns:xlink="http://www.w3.org/1999/xlink">
    <title>fresenius-helios</title>
    <g id="fresenius-helios" stroke="none" stroke-width="1" fill="none" fill-rule="evenodd">
        <path d="M15,26.564 L22.813,24.189 C23.3336667,24.043 23.7713333,23.8553333 24.126,23.626 C24.5013333,23.4173333 24.7826667,23.1986667 24.97,22.97 C25.1786667,22.7406667 25.3556667,22.501 25.501,22.251 L25.939,21.501 C26.0643333,21.2716667 26.231,21.0423333 26.439,20.813 C26.6263333,20.5836667 26.8973333,20.3543333 27.252,20.125 C27.606,19.9163333 28.0436667,19.7286667 28.565,19.562 L36.378,17.124 L36.378,21.562 L28.565,24 C27.8776667,24.2086667 27.3256667,24.4796667 26.909,24.813 C26.4923333,25.1256667 26.1903333,25.4486667 26.003,25.782 L25.44,26.782 C25.44,26.782 25.138,27.1153333 24.534,27.782 C24.0966667,28.0946667 23.5236667,28.355 22.815,28.563 L15.002,31.001 L15.002,26.563 L15,26.564 Z M15,22.939 L15,18.501 L22.813,16.126 C23.3336667,15.98 23.7713333,15.7923333 24.126,15.563 C24.5013333,15.3543333 24.7826667,15.1356667 24.97,14.907 C25.1786667,14.6776667 25.3556667,14.438 25.501,14.188 L25.939,13.438 C26.0643333,13.2086667 26.231,12.9793333 26.439,12.75 C26.6263333,12.5206667 26.8973333,12.2913333 27.252,12.062 C27.606,11.8533333 28.0436667,11.6656667 28.565,11.499 L36.378,9.061 L36.378,13.499 L28.565,15.937 C27.8776667,16.1456667 27.3256667,16.406 26.909,16.718 C26.4923333,17.03 26.1903333,17.353 26.003,17.687 L25.44,18.687 C25.44,18.687 25.138,19.0203333 24.534,19.687 C24.0966667,19.9996667 23.5236667,20.2706667 22.815,20.5 L15,22.939 Z M15,14.877 L15,10.439 L22.813,8.001 C23.5216667,7.79233333 24.0843333,7.532 24.501,7.22 C24.9383333,6.90733333 25.251,6.58433333 25.439,6.251 L26.002,5.251 C26.1686667,4.91766667 26.4603333,4.58433333 26.877,4.251 C27.2936667,3.93833333 27.8563333,3.66733333 28.565,3.438 L36.378,1 L36.378,5.438 L28.565,7.813 C28.065,7.959 27.6273333,8.14666667 27.252,8.376 C26.898,8.58466667 26.627,8.80333333 26.439,9.032 C26.251,9.26066667 26.0843333,9.50033333 25.939,9.751 L25.501,10.501 C25.355,10.7303333 25.1883333,10.9596667 25.001,11.189 C24.7923333,11.4183333 24.511,11.6476667 24.157,11.877 C23.7816667,12.0856667 23.3336667,12.2733333 22.813,12.44 L15,14.877 Z M47.375,25.877 L47.375,18.002 L49.313,18.002 L49.313,20.877 L52.063,20.877 L52.063,18.002 L54.001,18.002 L54.001,25.877 L52.063,25.877 L52.063,22.752 L49.313,22.752 L49.313,25.877 L47.375,25.877 Z M47.375,14.064 L47.375,6.189 L53.125,6.189 L53.125,7.939 L49.312,7.939 L49.312,9.189 L52,9.189 L52,10.877 L49.312,10.877 L49.312,14.065 L47.374,14.065 L47.375,14.064 Z M53.875,14.064 L53.875,6.189 L57.375,6.189 C58.2503333,6.189 58.9483333,6.39733333 59.469,6.814 C59.9896667,7.23066667 60.25,7.87666667 60.25,8.752 C60.25,9.83533333 59.7706667,10.5853333 58.812,11.002 L60.312,14.065 L58.187,14.065 L56.874,11.377 L55.749,11.377 L55.749,14.065 L53.874,14.065 L53.875,14.064 Z M55.5,25.877 L55.5,18.002 L61.063,18.002 L61.063,19.752 L57.438,19.752 L57.438,20.877 L59.876,20.877 L59.876,22.627 L57.438,22.627 L57.438,24.127 L61.313,24.127 L61.313,25.877 L55.5,25.877 Z M55.75,9.689 L57.25,9.689 C57.9586667,9.689 58.313,9.37633333 58.313,8.751 C58.313,8.16766667 57.9796667,7.876 57.313,7.876 L55.75,7.876 L55.75,9.689 Z M61.313,14.064 L61.313,6.189 L66.876,6.189 L66.876,7.939 L63.251,7.939 L63.251,9.064 L65.689,9.064 L65.689,10.814 L63.251,10.814 L63.251,12.314 L67.189,12.314 L67.189,14.064 L61.314,14.064 L61.313,14.064 Z M62.438,25.877 L62.438,18.002 L64.376,18.002 L64.376,24.127 L68.001,24.127 L68.001,25.877 L62.438,25.877 Z M67.563,13.064 L68.626,11.626 C68.876,11.8346667 69.2093333,12.0223333 69.626,12.189 C70.022,12.3556667 70.397,12.439 70.751,12.439 C71.147,12.439 71.4386667,12.387 71.626,12.283 C71.7926667,12.1996667 71.876,12.0433333 71.876,11.814 C71.876,11.6266667 71.7823333,11.4703333 71.595,11.345 C71.4076667,11.241 71.0223333,11.1056667 70.439,10.939 C69.5223333,10.7303333 68.8556667,10.4593333 68.439,10.126 C68.0223333,9.79266667 67.814,9.251 67.814,8.501 C67.814,7.77166667 68.085,7.178 68.627,6.72 C69.1476667,6.28266667 69.856,6.064 70.752,6.064 C71.8773333,6.064 72.8773333,6.39733333 73.752,7.064 L72.689,8.564 C71.9803333,8.064 71.2926667,7.814 70.626,7.814 C70.0426667,7.814 69.751,8.00166667 69.751,8.377 C69.751,8.54366667 69.8446667,8.679 70.032,8.783 C70.1986667,8.887 70.5633333,9.00166667 71.126,9.127 C72.0633333,9.35633333 72.751,9.65833333 73.189,10.033 C73.6476667,10.387 73.877,10.9183333 73.877,11.627 C73.877,12.481 73.5956667,13.1163333 73.033,13.533 C72.4703333,13.9703333 71.689,14.189 70.689,14.189 C70.085,14.189 69.5016667,14.0846667 68.939,13.876 C68.397,13.6673333 67.9386667,13.3963333 67.564,13.063 L67.563,13.064 Z M69.063,25.877 L69.063,18.002 L71.063,18.002 L71.063,25.877 L69.063,25.877 Z M72.188,22.002 C72.188,20.71 72.5006667,19.6996667 73.126,18.971 C73.7513333,18.2423333 74.6056667,17.8776667 75.689,17.877 C76.7516667,17.877 77.606,18.2313333 78.252,18.94 C78.8773333,19.6486667 79.19,20.628 79.19,21.878 C79.19,23.17 78.8773333,24.1803333 78.252,24.909 C77.606,25.6383333 76.731,26.003 75.627,26.003 C74.585,26.003 73.7516667,25.6486667 73.127,24.94 C72.5023333,24.2313333 72.1896667,23.252 72.189,22.002 L72.188,22.002 Z M74.188,21.877 C74.188,23.4603333 74.688,24.252 75.688,24.252 C76.1673333,24.252 76.5423333,24.054 76.813,23.658 C77.063,23.262 77.188,22.71 77.188,22.002 C77.188,20.4186667 76.667,19.627 75.625,19.627 C75.1663333,19.627 74.812,19.825 74.562,20.221 C74.312,20.617 74.187,21.169 74.187,21.877 L74.188,21.877 Z M74.875,14.064 L74.875,6.189 L80.438,6.189 L80.438,7.939 L76.813,7.939 L76.813,9.064 L79.251,9.064 L79.251,10.814 L76.813,10.814 L76.813,12.314 L80.688,12.314 L80.688,14.064 L74.875,14.064 Z M79.813,24.877 L80.813,23.439 C81.5003333,23.981 82.2296667,24.252 83.001,24.252 C83.397,24.252 83.6886667,24.2 83.876,24.096 C84.0426667,24.0126667 84.126,23.8563333 84.126,23.627 C84.126,23.4396667 84.0323333,23.2833333 83.845,23.158 C83.6363333,23.054 83.251,22.9186667 82.689,22.752 C81.7516667,22.5646667 81.085,22.2936667 80.689,21.939 C80.2723333,21.6056667 80.064,21.064 80.064,20.314 C80.064,19.5846667 80.335,18.991 80.877,18.533 C81.3976667,18.0956667 82.106,17.877 83.002,17.877 C84.148,17.877 85.1273333,18.2103333 85.94,18.877 L84.94,20.377 C84.2313333,19.877 83.5436667,19.627 82.877,19.627 C82.2936667,19.627 82.002,19.8146667 82.002,20.19 C82.002,20.3773333 82.0853333,20.5126667 82.252,20.596 C82.4393333,20.7 82.8143333,20.8146667 83.377,20.94 C84.2936667,21.1693333 84.9706667,21.4713333 85.408,21.846 C85.8453333,22.2 86.064,22.7313333 86.064,23.44 C86.064,24.294 85.793,24.9293333 85.251,25.346 C84.709,25.7833333 83.938,26.002 82.938,26.002 C82.334,26.002 81.7506667,25.8976667 81.188,25.689 C80.646,25.4803333 80.1876667,25.2093333 79.813,24.876 L79.813,24.877 Z M81.625,14.064 L81.625,6.189 L83.375,6.189 L86.375,10.502 L86.375,6.189 L88.25,6.189 L88.25,14.064 L86.625,14.064 L83.5,9.564 L83.5,14.064 L81.625,14.064 Z M89.625,14.064 L89.625,6.189 L91.625,6.189 L91.625,14.064 L89.625,14.064 Z M92.875,10.689 L92.875,6.189 L94.875,6.189 L94.875,10.689 C94.875,11.2096667 94.9896667,11.616 95.219,11.908 C95.4276667,12.2206667 95.7506667,12.377 96.188,12.377 C97.0633333,12.377 97.501,11.8143333 97.501,10.689 L97.501,6.189 L99.439,6.189 L99.439,10.689 C99.439,11.835 99.1473333,12.71 98.564,13.314 C97.9806667,13.8973333 97.189,14.189 96.189,14.189 C95.189,14.189 94.387,13.8973333 93.783,13.314 C93.179,12.71 92.877,11.835 92.877,10.689 L92.875,10.689 Z M100.188,13.064 L101.188,11.626 C101.875333,12.168 102.604667,12.439 103.376,12.439 C103.772,12.439 104.063667,12.387 104.251,12.283 C104.417667,12.1996667 104.501,12.0433333 104.501,11.814 C104.501,11.6266667 104.407333,11.4703333 104.22,11.345 C104.011333,11.241 103.626,11.1056667 103.064,10.939 C102.126667,10.7516667 101.46,10.4806667 101.064,10.126 C100.647333,9.79266667 100.439,9.251 100.439,8.501 C100.439,7.77166667 100.71,7.178 101.252,6.72 C101.772667,6.28266667 102.481,6.064 103.377,6.064 C104.523,6.064 105.502333,6.39733333 106.315,7.064 L105.315,8.564 C104.606333,8.064 103.918667,7.814 103.252,7.814 C102.668667,7.814 102.377,8.00166667 102.377,8.377 C102.377,8.56433333 102.460333,8.69966667 102.627,8.783 C102.814333,8.887 103.189333,9.00166667 103.752,9.127 C104.668667,9.35633333 105.345667,9.65833333 105.783,10.033 C106.220333,10.387 106.439,10.9183333 106.439,11.627 C106.439,12.481 106.168,13.1163333 105.626,13.533 C105.084,13.9703333 104.313,14.189 103.313,14.189 C102.709,14.189 102.125667,14.0846667 101.563,13.876 C101.021,13.6673333 100.562667,13.3963333 100.188,13.063 L100.188,13.064 Z" id="Shape" fill="#007456" fill-rule="nonzero"></path>
    </g>
</svg>