<?xml version="1.0" encoding="UTF-8"?>
<svg width="122px" height="32px" viewBox="0 0 122 32" version="1.1" xmlns="http://www.w3.org/2000/svg" xmlns:xlink="http://www.w3.org/1999/xlink">
    <title>fresenius-medical-care</title>
    <g id="fresenius-medical-care" stroke="none" stroke-width="1" fill="none" fill-rule="evenodd">
        <path d="M0,1 L16.6146341,3.85416585 L33.2292683,1 L29.7409561,6.5804878 L16.6136195,9.43465366 L3.48628293,6.5804878 L0,1 Z M6.53221463,11.6536585 L16.6156488,13.8097561 L26.6990829,11.6536585 L23.4644293,16.7907512 L16.6156488,18.566361 L9.70294634,16.7907512 L6.53221463,11.6536585 Z M13.0634146,21.228761 L16.6146341,22.1804878 L20.1658537,21.228761 L16.6146341,27 L13.0634146,21.228761 Z M39.3809951,25.9853659 L39.3809951,17.995122 L41.2205268,17.995122 L43.3137171,22.4980683 L45.3429854,17.995122 L47.1825171,17.995122 L47.1825171,25.9853659 L45.280078,25.9853659 L45.280078,21.9268293 L43.2508098,26.2390244 L41.2844488,21.9268293 L41.2844488,25.9853659 L39.3820098,25.9853659 L39.3809951,25.9853659 Z M39.3809951,13.9994927 L39.3809951,6.00924878 L45.3419707,6.00924878 L45.3419707,7.78485854 L41.3463415,7.78485854 L41.3463415,8.9902439 L44.2005073,8.9902439 L44.2005073,10.7658537 L41.3463415,10.7658537 L41.3463415,14.0005073 L39.3799805,14.0005073 L39.3809951,13.9994927 Z M46.1029463,13.9994927 L46.1029463,6.00924878 L49.7180878,6.00924878 C50.6481691,6.00924878 51.3773528,6.22063089 51.905639,6.64339512 C52.4339252,7.04519024 52.6980683,7.67933659 52.6980683,8.54583415 C52.6980683,9.70860488 52.2117203,10.4908878 51.2390244,10.8926829 L52.8248976,14.0005073 L50.5419707,14.0005073 L49.2097561,11.2731707 L48.0682927,11.2731707 L48.0682927,14.0005073 L46.1019317,14.0005073 L46.1029463,13.9994927 Z M48.0682927,9.56046829 L49.6541659,9.56046829 C50.3305886,9.56046829 50.6688,9.24322602 50.6688,8.60874146 C50.6688,8.01687154 50.3305886,7.72093659 49.6541659,7.72093659 L48.0682927,7.72093659 L48.0682927,9.56046829 Z M48.766361,25.9853659 L48.766361,17.995122 L54.5376,17.995122 L54.5376,19.7707317 L50.732722,19.7707317 L50.732722,20.9121951 L53.2693073,20.9121951 L53.2693073,22.6878049 L50.732722,22.6878049 L50.732722,24.273678 L54.7912585,24.273678 L54.7912585,25.9863805 L48.766361,25.9863805 L48.766361,25.9853659 Z M53.8395317,13.9994927 L53.8395317,6.00924878 L59.6107707,6.00924878 L59.6107707,7.72195122 L55.8688,7.72195122 L55.8688,8.92733659 L58.4053854,8.92733659 L58.4053854,10.640039 L55.8688,10.640039 L55.8688,12.2259122 L59.9273366,12.2259122 L59.9273366,14.001522 L53.8395317,14.001522 L53.8395317,13.9994927 Z M55.8688,25.9853659 L55.8688,17.995122 L58.5322146,17.995122 C59.843122,17.995122 60.8472715,18.3015415 61.5446634,18.9143805 C62.2420553,19.5272195 62.5907512,20.5523382 62.5907512,21.9897366 C62.5907512,24.6534894 61.174322,25.9853659 58.3414634,25.9853659 L55.8677854,25.9853659 L55.8688,25.9853659 Z M57.8980683,24.2097561 L58.4693073,24.2097561 C59.1883447,24.2097561 59.7169691,24.0406504 60.0551805,23.702439 C60.3933919,23.3642276 60.5624976,22.7933268 60.5624976,21.9897366 C60.5624976,21.228761 60.4038764,20.6686829 60.0866341,20.3095024 C59.7693919,19.950322 59.2515902,19.7707317 58.5332293,19.7707317 L57.8990829,19.7707317 L57.8990829,24.2097561 L57.8980683,24.2097561 Z M60.3078244,12.9848585 L61.3863805,11.5258146 C61.6826537,11.7585041 62.0421724,11.9489171 62.4649366,12.0970537 C62.8877008,12.2661593 63.2894959,12.3507122 63.670322,12.3507122 C64.0721171,12.3507122 64.368052,12.2979512 64.5581268,12.1924293 C64.7272325,12.1078764 64.8117854,11.9492553 64.8117854,11.7165659 C64.8117854,11.5264911 64.7059252,11.3678699 64.4942049,11.2407024 C64.3041301,11.1351805 63.902335,10.9978667 63.2888195,10.828761 C62.3377691,10.6386862 61.640039,10.3637203 61.1956293,10.0038634 C60.772865,9.66565203 60.5614829,9.11605854 60.5614829,8.35508293 C60.5614829,7.61507642 60.8469333,7.01272195 61.4178341,6.54801951 C61.9677659,6.10428618 62.6969496,5.88241951 63.6053854,5.88241951 C64.7891252,5.88241951 65.8250667,6.22063089 66.7132098,6.89705366 L65.6346537,8.41900488 C65.0001691,7.9116878 64.302439,7.65802927 63.5414634,7.65802927 C62.9069789,7.65802927 62.5897366,7.84844228 62.5897366,8.22926829 C62.5897366,8.39837398 62.684774,8.5356878 62.8748488,8.64120976 C63.0439545,8.74673171 63.4139577,8.86307642 63.9848585,8.9902439 C64.9785236,9.22293333 65.6972228,9.51886829 66.1409561,9.87804878 C66.606335,10.2372293 66.8390244,10.7868228 66.8390244,11.5268293 C66.8390244,12.3933268 66.553574,13.0379577 65.9826732,13.460722 C65.4117724,13.9044553 64.6190049,14.126322 63.6043707,14.126322 C62.2515252,14.126322 61.1523382,13.7458341 60.3068098,12.9848585 L60.3078244,12.9848585 Z M63.7322146,25.9853659 L63.7322146,17.995122 L65.7614829,17.995122 L65.7614829,25.9853659 L63.7322146,25.9853659 Z M66.8390244,21.9897366 C66.8390244,20.7633821 67.1772358,19.7697171 67.8536585,19.0087415 C68.5300813,18.2477659 69.3969171,17.867278 70.4541659,17.867278 C71.3206634,17.867278 71.9970862,18.0468683 72.4834341,18.4060488 C72.9697821,18.7652293 73.3502699,19.3043382 73.6248976,20.0233756 L71.7853659,20.7843512 C71.6372293,20.4251707 71.4681236,20.1610276 71.2780488,19.991922 C71.087974,19.8018472 70.8130081,19.7068098 70.4531512,19.7068098 C69.9668033,19.7068098 69.5863154,19.9181919 69.3116878,20.3409561 C69.0580293,20.7427512 68.9312,21.2923447 68.9312,21.9897366 C68.9312,22.6871285 69.0580293,23.2472065 69.3116878,23.6699707 C69.5863154,24.1137041 69.9668033,24.3355707 70.4531512,24.3355707 C70.8123317,24.3355707 71.0977821,24.2510179 71.3095024,24.0819122 C71.4995772,23.9128065 71.7214439,23.6168715 71.9751024,23.1941073 L73.6238829,24.1458341 C73.0110439,25.4567415 71.9541333,26.1121951 70.4531512,26.1121951 C69.3329951,26.1121951 68.4451902,25.7421919 67.7897366,25.0021854 C67.155252,24.2412098 66.8380098,23.2370602 66.8380098,21.9897366 L66.8390244,21.9897366 Z M67.9175805,13.9994927 L67.9175805,6.00924878 L73.6888195,6.00924878 L73.6888195,7.72195122 L69.8839415,7.72195122 L69.8839415,8.92733659 L72.4205268,8.92733659 L72.4205268,10.640039 L69.8839415,10.640039 L69.8839415,12.2259122 L73.942478,12.2259122 L73.942478,14.001522 L67.9175805,14.001522 L67.9175805,13.9994927 Z M73.6878049,25.9853659 L76.604878,17.995122 L78.6341463,17.995122 L81.5512195,25.9853659 L79.395122,25.9853659 L78.9507122,24.4634146 L76.2872976,24.4634146 L75.8428878,25.9853659 L73.6867902,25.9853659 L73.6878049,25.9853659 Z M74.8931902,13.9994927 L74.8931902,6.00924878 L76.732722,6.00924878 L79.8405463,10.3853659 L79.8405463,6.00924878 L81.7429854,6.00924878 L81.7429854,13.9994927 L80.0942049,13.9994927 L76.8595512,9.43363902 L76.8595512,13.9994927 L74.8931902,13.9994927 Z M76.7956293,22.8146341 L78.3815024,22.8146341 L77.6205268,20.2141268 L76.7956293,22.8146341 Z M82.3761171,25.9853659 L82.3761171,17.995122 L84.4053854,17.995122 L84.4053854,24.2097561 L88.0834341,24.2097561 L88.0834341,25.9853659 L82.3761171,25.9853659 Z M83.2,13.9994927 L83.2,6.00924878 L85.2292683,6.00924878 L85.2292683,13.9994927 L83.2,13.9994927 Z M86.5614829,10.5751024 L86.5614829,6.00924878 L88.5907512,6.00924878 L88.5907512,10.5751024 C88.5907512,11.0824195 88.7175805,11.4946992 88.971239,11.8119415 C89.2039285,12.1291837 89.5421398,12.2878049 89.9858732,12.2878049 C90.9159545,12.2878049 91.3809951,11.7169041 91.3809951,10.5751024 L91.3809951,6.00924878 L93.4102634,6.00924878 L93.4102634,10.5751024 C93.4102634,11.7378732 93.1038439,12.625678 92.4910049,13.2385171 C91.8781659,13.830387 91.043122,14.126322 89.9858732,14.126322 C88.9502699,14.126322 88.1257106,13.830387 87.5121951,13.2385171 C86.8777106,12.6466472 86.5604683,11.7588423 86.5604683,10.5751024 L86.5614829,10.5751024 Z M91.7614829,21.9897366 C91.7614829,20.7633821 92.0996943,19.7697171 92.7761171,19.0087415 C93.4525398,18.2477659 94.3193756,17.867278 95.3766244,17.867278 C96.243122,17.867278 96.9195447,18.0468683 97.4058927,18.4060488 C97.8922407,18.7652293 98.2727285,19.3043382 98.5473561,20.0233756 L96.7078244,20.7843512 C96.5596878,20.4251707 96.3905821,20.1610276 96.2005073,19.991922 C96.0104325,19.8018472 95.7354667,19.7068098 95.3756098,19.7068098 C94.8892618,19.7068098 94.508774,19.9181919 94.2341463,20.3409561 C93.9804878,20.7427512 93.8536585,21.2923447 93.8536585,21.9897366 C93.8536585,22.6871285 93.9804878,23.2472065 94.2341463,23.6699707 C94.508774,24.1137041 94.8892618,24.3355707 95.3756098,24.3355707 C95.7347902,24.3355707 96.0202407,24.2510179 96.231961,24.0819122 C96.4220358,23.9128065 96.6439024,23.6168715 96.897561,23.1941073 L98.5463415,24.1458341 C97.9335024,25.4567415 96.8765919,26.1121951 95.3756098,26.1121951 C94.2554537,26.1121951 93.3676488,25.7421919 92.7121951,25.0021854 C92.0777106,24.2412098 91.7604683,23.2370602 91.7604683,21.9897366 L91.7614829,21.9897366 Z M94.1073171,12.9848585 L95.1858732,11.5258146 C95.4821463,11.7585041 95.841665,11.9489171 96.2644293,12.0970537 C96.6871935,12.2661593 97.0889886,12.3507122 97.4698146,12.3507122 C97.8716098,12.3507122 98.1675447,12.2979512 98.3576195,12.1924293 C98.5267252,12.1078764 98.611278,11.9492553 98.611278,11.7165659 C98.611278,11.5264911 98.5162407,11.3678699 98.3261659,11.2407024 C98.1360911,11.1351805 97.7451187,10.9978667 97.1532488,10.828761 C96.1805528,10.6170407 95.4723382,10.3420748 95.0286049,10.0038634 C94.5848715,9.64468293 94.3630049,9.09508943 94.3630049,8.35508293 C94.3630049,7.61507642 94.6484553,7.01272195 95.2193561,6.54801951 C95.7902569,6.10428618 96.540748,5.88241951 97.4708293,5.88241951 C98.6755382,5.88241951 99.6901724,6.22063089 100.514732,6.89705366 L99.4361756,8.41900488 C98.8016911,7.9116878 98.103961,7.65802927 97.3429854,7.65802927 C96.7085008,7.65802927 96.3912585,7.84844228 96.3912585,8.22926829 C96.3912585,8.41934309 96.4862959,8.55665691 96.6763707,8.64120976 C96.8664455,8.74673171 97.2574179,8.86307642 97.8492878,8.9902439 C98.8219837,9.22293333 99.5301984,9.51886829 99.9739317,9.87804878 C100.417665,10.2372293 100.639532,10.7868228 100.639532,11.5268293 C100.639532,12.3933268 100.364566,13.0379577 99.8146341,13.460722 C99.2437333,13.9044553 98.4404813,14.126322 97.404878,14.126322 C96.0520325,14.126322 94.9528455,13.7458341 94.1073171,12.9848585 L94.1073171,12.9848585 Z M98.6102634,25.9853659 L101.527337,17.995122 L103.556605,17.995122 L106.473678,25.9853659 L104.31758,25.9853659 L103.873171,24.4634146 L101.209756,24.4634146 L100.765346,25.9853659 L98.6092488,25.9853659 L98.6102634,25.9853659 Z M101.717073,22.8146341 L103.302946,22.8146341 L102.541971,20.2141268 L101.717073,22.8146341 Z M107.297561,25.9853659 L107.297561,17.995122 L110.912702,17.995122 C111.821815,17.995122 112.540514,18.2065041 113.0688,18.6292683 C113.618732,19.0520325 113.893698,19.7074862 113.893698,20.5956293 C113.893698,21.7374309 113.40735,22.5197138 112.434654,22.942478 L114.020527,25.9863805 L111.7376,25.9863805 L110.405385,23.2590439 L109.263922,23.2590439 L109.263922,25.9863805 L107.297561,25.9863805 L107.297561,25.9853659 Z M109.263922,21.6092488 L110.849795,21.6092488 C111.526218,21.6092488 111.864429,21.2920065 111.864429,20.657522 C111.864429,20.0230374 111.526218,19.7057951 110.849795,19.7057951 L109.263922,19.7057951 L109.263922,21.6082341 L109.263922,21.6092488 Z M115.098068,25.9853659 L115.098068,17.995122 L120.869307,17.995122 L120.869307,19.7707317 L117.064429,19.7707317 L117.064429,20.9121951 L119.601015,20.9121951 L119.601015,22.6878049 L117.064429,22.6878049 L117.064429,24.273678 L121.122966,24.273678 L121.122966,25.9863805 L115.098068,25.9863805 L115.098068,25.9853659 Z" id="Shape" fill="#005494" fill-rule="nonzero"></path>
    </g>
</svg>