<?xml version="1.0" encoding="UTF-8"?>
<svg width="122px" height="32px" viewBox="0 0 122 32" version="1.1" xmlns="http://www.w3.org/2000/svg" xmlns:xlink="http://www.w3.org/1999/xlink">
    <title>fresenius-vamed</title>
    <g id="fresenius-vamed" stroke="none" stroke-width="1" fill="none" fill-rule="evenodd">
        <path d="M12,2 L19.0167322,2 L19.9569743,3.56673606 L12.9402421,3.56673606 L12,2 Z M13.6920349,4.94402036 L20.7719176,4.94402036 L21.6490092,6.57290462 L14.632277,6.57290462 L13.6920349,4.94402036 Z M15.4462179,7.9511913 L22.4629501,7.9511913 L23.3400416,9.51792737 L16.3233094,9.51792737 L15.4462179,7.9511913 Z M17.1372504,10.896214 L24.1539826,10.896214 L26.8484077,15.7207186 L29.6049811,10.896214 L36.6217133,10.896214 L26.8484077,28 L17.1372504,10.896214 Z M21.0846634,2 L41.7589637,2 L40.8187216,3.56673606 L22.0239032,3.56673606 L21.0846634,2 Z M22.7756959,4.94402036 L40.0669288,4.94402036 L39.1266867,6.57290462 L23.7149356,6.57290462 L22.7756959,4.94402036 Z M24.4677307,7.9511913 L38.3137482,7.9511913 L37.4366566,9.51792737 L25.4079729,9.51792737 L24.4677307,7.9511913 Z M48.3366489,18.5394402 L50.4667284,18.5394402 L52.0334644,24.2410363 L53.6002005,18.5394402 L55.6681317,18.5394402 L52.9737065,26.4332639 L51.0310741,26.4332639 L48.3366489,18.5394402 Z M49.0884417,14.5920271 L49.0884417,6.69820341 L54.9153366,6.69820341 L54.9153366,8.45238646 L51.0932223,8.45238646 L51.0932223,9.64322615 L53.8497957,9.64322615 L53.8497957,11.3974092 L51.0932223,11.3974092 L51.0932223,14.5930295 L49.0884417,14.5930295 L49.0884417,14.5920271 Z M54.7900378,26.4332639 L57.6719099,18.5394402 L59.6145424,18.5394402 L62.4964145,26.4332639 L60.3663351,26.4332639 L59.9272881,24.9296785 L57.3581618,24.9296785 L56.9191148,26.4332639 L54.7890354,26.4332639 L54.7900378,26.4332639 Z M55.6671293,14.5920271 L55.6671293,6.69820341 L59.238646,6.69820341 C60.1367877,6.69820341 60.8468142,6.90703472 61.3687254,7.32469736 C61.912021,7.74235999 62.1836687,8.38990413 62.1836687,9.26732979 C62.1836687,10.3532526 61.7031897,11.1050454 60.7422315,11.522708 L62.2458169,14.5930295 L60.0525869,14.5930295 L58.7364485,11.8986044 L57.6087593,11.8986044 L57.6087593,14.5930295 L55.6661269,14.5930295 L55.6671293,14.5920271 Z M57.6087593,10.2065695 L59.1754954,10.2065695 C59.8437556,10.2065695 60.1778857,9.89315547 60.1778857,9.2663274 C60.1778857,8.68159971 59.8437556,8.38923587 59.1754954,8.38923587 L57.6087593,8.38923587 L57.6087593,10.2065695 Z M57.8593569,23.2376436 L59.426093,23.2376436 L58.6111497,20.7316678 L57.8593569,23.2376436 Z M63.2472049,26.4332639 L63.2472049,18.5394402 L65.0645385,18.5394402 L67.1324697,22.9880484 L69.0751022,18.5394402 L70.954584,18.5394402 L70.954584,26.4332639 L69.0751022,26.4332639 L69.0751022,22.4237027 L67.0703215,26.6838615 L65.1276891,22.4237027 L65.1276891,26.4332639 L63.2482073,26.4332639 L63.2472049,26.4332639 Z M63.3103555,14.5920271 L63.3103555,6.69820341 L68.8866528,6.69820341 L68.8866528,8.45238646 L65.2529879,8.45238646 L65.2529879,9.58007556 L67.6968155,9.58007556 L67.6968155,11.3342586 L65.2529879,11.3342586 L65.2529879,12.8378441 L69.200401,12.8378441 L69.200401,14.5920271 L63.3113579,14.5920271 L63.3103555,14.5920271 Z M69.5752949,13.5896368 L70.6408358,12.1481996 C71.3298121,12.6914951 72.0608888,12.9631429 72.8340658,12.9631429 C73.2310124,12.9631429 73.5233763,12.9110186 73.7111574,12.80677 C73.8782224,12.7232375 73.961755,12.5665304 73.961755,12.3366489 C73.961755,12.1488678 73.8678644,11.9921608 73.6800833,11.8665279 C73.4923022,11.7622793 73.1060478,11.6266225 72.5213201,11.4595574 C71.5817462,11.2717763 70.8924358,11.0001285 70.4533889,10.6446141 C70.0357262,10.310484 69.8268949,9.76752255 69.8268949,9.01572982 C69.8268949,8.28465315 70.1089007,7.68956743 70.6729123,7.23047267 C71.2162079,6.79209397 71.9365924,6.57290462 72.8340658,6.57290462 C73.9620891,6.57290462 74.9644794,6.90703472 75.8412368,7.57529493 L74.7756959,9.07888041 C74.1488678,8.57768525 73.4595574,8.32708767 72.7077647,8.32708767 C72.123037,8.32708767 71.8306731,8.51520292 71.8306731,8.89143342 C71.8306731,9.07921454 71.9142057,9.21487136 72.0812707,9.29840389 C72.2690518,9.40265248 72.6449482,9.51759324 73.2089598,9.64322615 C74.1485337,9.87310767 74.8378441,10.1758295 75.276891,10.5513918 C75.7366541,10.906238 75.9665356,11.4388413 75.9665356,12.1492019 C75.9665356,13.0052433 75.6845298,13.6420953 75.1205182,14.0597579 C74.5565065,14.4981366 73.7733056,14.7173259 72.7709153,14.7173259 C72.1861876,14.7173259 71.6014599,14.6127432 71.0167322,14.4035778 C70.4527206,14.1944123 69.9722415,13.9227645 69.5752949,13.5886344 L69.5752949,13.5896368 Z M72.4571671,26.4332639 L72.4571671,18.5394402 L78.0956126,18.5394402 L78.0956126,20.2936233 L74.3987971,20.2936233 L74.3987971,21.4213124 L76.8426247,21.4213124 L76.8426247,23.1133472 L74.3987971,23.1133472 L74.3987971,24.6800833 L78.3462102,24.6800833 L78.3462102,26.4342663 L72.4571671,26.4342663 L72.4571671,26.4332639 Z M77.0300717,14.5920271 L77.0300717,6.69820341 L82.6685172,6.69820341 L82.6685172,8.45238646 L78.9717018,8.45238646 L78.9717018,9.58007556 L81.4155293,9.58007556 L81.4155293,11.3342586 L78.9717018,11.3342586 L78.9717018,12.8378441 L82.9191148,12.8378441 L82.9191148,14.5920271 L77.0300717,14.5920271 Z M79.4107487,26.4332639 L79.4107487,18.5394402 L82.0420233,18.5394402 C83.2950112,18.5394402 84.2659933,18.8421621 84.9549695,19.4476058 C85.6439458,20.0530496 85.988434,21.0450819 85.988434,22.4237027 C85.988434,25.0967435 84.6101473,26.4332639 81.8535739,26.4332639 L79.4097463,26.4332639 L79.4107487,26.4332639 Z M81.3533811,24.6790809 L81.9177269,24.6790809 C82.6280875,24.6790809 83.1503328,24.5016578 83.484463,24.1468116 C83.8185931,23.7919655 83.9856581,23.238646 83.9856581,22.4868533 C83.9856581,21.7350605 83.8289511,21.1817411 83.515537,20.8268949 C83.202123,20.4720487 82.6905698,20.2946256 81.9808775,20.2946256 L81.3543835,20.2946256 L81.3543835,24.6800833 L81.3533811,24.6790809 Z M83.8593569,14.5920271 L83.8593569,6.69820341 L85.61354,6.69820341 L88.6207109,11.0215128 L88.6207109,6.69820341 L90.5633434,6.69820341 L90.5633434,14.5920271 L88.8713085,14.5920271 L85.7388388,10.0812707 L85.7388388,14.5920271 L83.8593569,14.5920271 Z M91.9406277,14.5920271 L91.9406277,6.69820341 L93.9454083,6.69820341 L93.9454083,14.5920271 L91.9406277,14.5920271 Z M95.2615468,11.2089598 L95.2615468,6.69820341 L97.2663274,6.69820341 L97.2663274,11.2089598 C97.2663274,11.7308711 97.3812682,12.1381756 97.6111497,12.4308736 C97.8203151,12.7442877 98.1440872,12.9009947 98.5824659,12.9009947 C99.5013237,12.9009947 99.9607526,12.3369831 99.9607526,11.2089598 L99.9607526,6.69820341 L101.903385,6.69820341 L101.903385,11.2089598 C101.903385,12.3576991 101.600663,13.2244326 100.995219,13.8091603 C100.410492,14.4146041 99.6065747,14.7173259 98.5834683,14.7173259 C97.581078,14.7173259 96.7771609,14.4249621 96.1717172,13.8402344 C95.5662734,13.2347907 95.2635515,12.3576991 95.2635515,11.2089598 L95.2615468,11.2089598 Z M102.654175,13.5896368 L103.719716,12.1481996 C104.408693,12.6914951 105.139769,12.9631429 105.912946,12.9631429 C106.309893,12.9631429 106.602257,12.9110186 106.790038,12.80677 C106.957103,12.7232375 107.040635,12.5665304 107.040635,12.3366489 C107.040635,12.1488678 106.936053,11.9921608 106.726887,11.8665279 C106.539106,11.7622793 106.14216,11.6266225 105.536047,11.4595574 C104.61719,11.250392 103.948929,10.9787442 103.531267,10.6446141 C103.113604,10.310484 102.904773,9.76752255 102.904773,9.01572982 C102.904773,8.28465315 103.176421,7.68956743 103.719716,7.23047267 C104.241627,6.79209397 104.951654,6.57290462 105.849796,6.57290462 C107.019251,6.57290462 108.042692,6.90703472 108.920117,7.57529493 L107.854576,9.07888041 C107.227748,8.57768525 106.538438,8.32708767 105.786645,8.32708767 C105.159817,8.32708767 104.846403,8.51520292 104.846403,8.89143342 C104.846403,9.05849847 104.940294,9.19415529 105.128075,9.29840389 C105.29514,9.40265248 105.660678,9.51759324 106.22469,9.64322615 C107.185648,9.87310767 107.895674,10.1758295 108.354769,10.5513918 C108.814532,10.906238 109.044414,11.4388413 109.044414,12.1492019 C109.044414,13.0052433 108.762408,13.6420953 108.198396,14.0597579 C107.634385,14.4981366 106.851184,14.7173259 105.848793,14.7173259 C105.24335,14.7173259 104.648264,14.6127432 104.063536,14.4035778 C103.478808,14.1944123 103.009022,13.9227645 102.654175,13.5886344 L102.654175,13.5896368 Z" id="vamed" fill="#009BB5" fill-rule="nonzero"></path>
    </g>
</svg>